G75*
G70*
%OFA0B0*%
%FSLAX24Y24*%
%IPPOS*%
%LPD*%
%AMOC8*
5,1,8,0,0,1.08239X$1,22.5*
%
%ADD10C,0.0000*%
%ADD11R,0.0740X0.0740*%
%ADD12C,0.0740*%
%ADD13R,0.0433X0.0394*%
%ADD14R,0.0315X0.0315*%
%ADD15OC8,0.0669*%
%ADD16C,0.0100*%
%ADD17C,0.0160*%
D10*
X011436Y000987D02*
X011436Y020987D01*
X028686Y020987D01*
X028686Y000987D01*
X011436Y000987D01*
D11*
X020686Y002487D03*
X019086Y020487D03*
X027686Y020487D03*
D12*
X026686Y020487D03*
X025686Y020487D03*
X024686Y020487D03*
X023686Y020487D03*
X022686Y020487D03*
X021686Y020487D03*
X020686Y020487D03*
X018086Y020487D03*
X017086Y020487D03*
X016086Y020487D03*
X015086Y020487D03*
X014086Y020487D03*
X013086Y020487D03*
X012086Y020487D03*
X013686Y002487D03*
X014686Y002487D03*
X015686Y002487D03*
X016686Y002487D03*
X017686Y002487D03*
X018686Y002487D03*
X019686Y002487D03*
X019686Y001487D03*
X018686Y001487D03*
X017686Y001487D03*
X016686Y001487D03*
X015686Y001487D03*
X020686Y001487D03*
X022686Y001487D03*
X023686Y001487D03*
X024686Y001487D03*
X025686Y001487D03*
X026686Y001487D03*
X027686Y001487D03*
D13*
X027686Y004402D03*
X027686Y005071D03*
X026686Y005071D03*
X026686Y004402D03*
X025686Y004402D03*
X025686Y005071D03*
X024686Y005071D03*
X024686Y004402D03*
X023686Y004402D03*
X023686Y005071D03*
X022686Y005071D03*
X022686Y004402D03*
X021686Y004402D03*
X021686Y005071D03*
X020686Y005071D03*
X020686Y004402D03*
X019686Y004402D03*
X019686Y005071D03*
X018686Y005071D03*
X018686Y004402D03*
X017686Y004402D03*
X017686Y005071D03*
X016686Y005071D03*
X016686Y004402D03*
X015686Y004402D03*
X015686Y005071D03*
X014686Y005071D03*
X014686Y004402D03*
X015086Y017952D03*
X015086Y018621D03*
X016086Y018621D03*
X016086Y017952D03*
X017086Y017952D03*
X017086Y018621D03*
X018086Y018621D03*
X018086Y017952D03*
X019086Y017952D03*
X019086Y018621D03*
X020686Y018621D03*
X020686Y017952D03*
X021686Y017952D03*
X021686Y018621D03*
X022686Y018621D03*
X022686Y017952D03*
X023686Y017952D03*
X023686Y018621D03*
X024686Y018621D03*
X024686Y017952D03*
X025686Y017952D03*
X025686Y018621D03*
X026686Y018621D03*
X026686Y017952D03*
X027686Y017952D03*
X027686Y018621D03*
X014086Y018621D03*
X014086Y017952D03*
D14*
X014086Y019191D03*
X014086Y019782D03*
X015086Y019782D03*
X015086Y019191D03*
X016086Y019191D03*
X016086Y019782D03*
X017086Y019782D03*
X017086Y019191D03*
X018086Y019191D03*
X018086Y019782D03*
X019086Y019782D03*
X019086Y019191D03*
X020686Y019191D03*
X020686Y019782D03*
X021686Y019782D03*
X021686Y019191D03*
X022686Y019191D03*
X022686Y019782D03*
X023686Y019782D03*
X023686Y019191D03*
X024686Y019191D03*
X024686Y019782D03*
X025686Y019782D03*
X025686Y019191D03*
X026686Y019191D03*
X026686Y019782D03*
X027686Y019782D03*
X027686Y019191D03*
X027686Y003782D03*
X027686Y003191D03*
X026686Y003191D03*
X026686Y003782D03*
X025686Y003782D03*
X025686Y003191D03*
X024686Y003191D03*
X024686Y003782D03*
X023686Y003782D03*
X023686Y003191D03*
X022686Y003191D03*
X022686Y003782D03*
X021686Y003782D03*
X021686Y003191D03*
X020686Y003191D03*
X020686Y003782D03*
X019686Y003782D03*
X019686Y003191D03*
X018686Y003191D03*
X018686Y003782D03*
X017686Y003782D03*
X017686Y003191D03*
X016686Y003191D03*
X016686Y003782D03*
X015686Y003782D03*
X015686Y003191D03*
X014686Y003191D03*
X014686Y003782D03*
D15*
X014686Y006487D03*
X013686Y006487D03*
X013686Y007487D03*
X014686Y007487D03*
X014686Y008487D03*
X013686Y008487D03*
X013686Y009487D03*
X014686Y009487D03*
X014686Y010487D03*
X013686Y010487D03*
X013686Y011487D03*
X014686Y011487D03*
X014686Y012487D03*
X013686Y012487D03*
X013686Y013487D03*
X014686Y013487D03*
X014686Y014487D03*
X013686Y014487D03*
X013686Y015487D03*
X014686Y015487D03*
X014686Y016487D03*
X013686Y016487D03*
X012686Y016487D03*
X012686Y015487D03*
X012686Y014487D03*
X012686Y013487D03*
X012686Y012487D03*
X012686Y011487D03*
X012686Y010487D03*
X012686Y009487D03*
X012686Y008487D03*
X012686Y007487D03*
X012686Y006487D03*
X015686Y006487D03*
X016686Y006487D03*
X016686Y007487D03*
X015686Y007487D03*
X015686Y008487D03*
X016686Y008487D03*
X016686Y009487D03*
X015686Y009487D03*
X017686Y009487D03*
X018686Y009487D03*
X019686Y009487D03*
X020686Y009487D03*
X021686Y009487D03*
X022686Y009487D03*
X023686Y009487D03*
X023686Y010487D03*
X023686Y011487D03*
X023686Y012487D03*
X022686Y012487D03*
X022686Y013487D03*
X023686Y013487D03*
X023686Y014487D03*
X022686Y014487D03*
X022686Y015487D03*
X023686Y015487D03*
X023686Y016487D03*
X022686Y016487D03*
X021686Y016487D03*
X020686Y016487D03*
X019686Y016487D03*
X018686Y016487D03*
X017686Y016487D03*
X016686Y016487D03*
X015686Y016487D03*
X015686Y015487D03*
X016686Y015487D03*
X017686Y015487D03*
X018686Y015487D03*
X019686Y015487D03*
X020686Y015487D03*
X021686Y015487D03*
X021686Y014487D03*
X020686Y014487D03*
X019686Y014487D03*
X018686Y014487D03*
X017686Y014487D03*
X016686Y014487D03*
X015686Y014487D03*
X015686Y013487D03*
X016686Y013487D03*
X017686Y013487D03*
X018686Y013487D03*
X019686Y013487D03*
X020686Y013487D03*
X021686Y013487D03*
X021686Y012487D03*
X020686Y012487D03*
X019686Y012487D03*
X018686Y012487D03*
X017686Y012487D03*
X016686Y012487D03*
X015686Y012487D03*
X017686Y008487D03*
X018686Y008487D03*
X019686Y008487D03*
X020686Y008487D03*
X021686Y008487D03*
X022686Y008487D03*
X023686Y008487D03*
X024686Y008487D03*
X025686Y008487D03*
X025686Y009487D03*
X024686Y009487D03*
X024686Y010487D03*
X025686Y010487D03*
X025686Y011487D03*
X024686Y011487D03*
X024686Y012487D03*
X025686Y012487D03*
X025686Y013487D03*
X024686Y013487D03*
X024686Y014487D03*
X025686Y014487D03*
X025686Y015487D03*
X024686Y015487D03*
X024686Y016487D03*
X025686Y016487D03*
X026686Y016487D03*
X027686Y016487D03*
X027686Y015487D03*
X026686Y015487D03*
X026686Y014487D03*
X027686Y014487D03*
X027686Y013487D03*
X026686Y013487D03*
X026686Y012487D03*
X026686Y011487D03*
X026686Y010487D03*
X026686Y009487D03*
X027686Y009487D03*
X027686Y008487D03*
X026686Y008487D03*
X026686Y007487D03*
X027686Y007487D03*
X027686Y006487D03*
X026686Y006487D03*
X025686Y006487D03*
X024686Y006487D03*
X024686Y007487D03*
X025686Y007487D03*
X023686Y007487D03*
X022686Y007487D03*
X021686Y007487D03*
X020686Y007487D03*
X019686Y007487D03*
X018686Y007487D03*
X017686Y007487D03*
X017686Y006487D03*
X018686Y006487D03*
X019686Y006487D03*
X020686Y006487D03*
X021686Y006487D03*
X022686Y006487D03*
X023686Y006487D03*
D16*
X023686Y004402D02*
X023686Y003782D01*
X023686Y003191D02*
X023686Y001487D01*
X022686Y001487D02*
X022686Y003191D01*
X022686Y003782D02*
X022686Y004402D01*
X021686Y004402D02*
X021686Y003782D01*
X021686Y003191D02*
X021391Y003191D01*
X020686Y002487D01*
X020686Y003191D02*
X020391Y003191D01*
X019686Y002487D01*
X019686Y003191D02*
X019391Y003191D01*
X018686Y002487D01*
X018686Y003191D02*
X018391Y003191D01*
X017686Y002487D01*
X017686Y003191D02*
X017391Y003191D01*
X016686Y002487D01*
X016686Y003191D02*
X016391Y003191D01*
X015686Y002487D01*
X015686Y003191D02*
X015391Y003191D01*
X014686Y002487D01*
X014686Y003191D02*
X014391Y003191D01*
X013686Y002487D01*
X012686Y001987D02*
X018186Y001987D01*
X018686Y001487D01*
X019686Y001487D02*
X020186Y001987D01*
X021686Y001987D01*
X020686Y003782D02*
X020686Y004402D01*
X019686Y004402D02*
X019686Y003782D01*
X018686Y003782D02*
X018686Y004402D01*
X017686Y004402D02*
X017686Y003782D01*
X016686Y003782D02*
X016686Y004402D01*
X015686Y004402D02*
X015686Y003782D01*
X014686Y003782D02*
X014686Y004402D01*
X024686Y004402D02*
X024686Y003782D01*
X024686Y003191D02*
X024686Y001487D01*
X025686Y001487D02*
X025686Y003191D01*
X025686Y003782D02*
X025686Y004402D01*
X026686Y004402D02*
X026686Y003782D01*
X026686Y003191D02*
X026686Y001487D01*
X027686Y001487D02*
X027686Y003191D01*
X027686Y003782D02*
X027686Y004402D01*
X027686Y018621D02*
X027686Y019191D01*
X027686Y019782D02*
X027686Y020487D01*
X026686Y020487D02*
X026686Y019782D01*
X026686Y019191D02*
X026686Y018621D01*
X025686Y018621D02*
X025686Y019191D01*
X025686Y019782D02*
X025686Y020487D01*
X024686Y020487D02*
X024686Y019782D01*
X024686Y019191D02*
X024686Y018621D01*
X023686Y018621D02*
X023686Y019191D01*
X023686Y019782D02*
X023686Y020487D01*
X022686Y020487D02*
X022686Y019782D01*
X022686Y019191D02*
X022686Y018621D01*
X021686Y018621D02*
X021686Y019191D01*
X021686Y019782D02*
X021686Y020487D01*
X020686Y020487D02*
X020686Y019782D01*
X020686Y019191D02*
X020686Y018621D01*
X019086Y018621D02*
X019086Y019191D01*
X019086Y019782D02*
X019086Y020487D01*
X018086Y020487D02*
X018086Y019782D01*
X018086Y019191D02*
X018086Y018621D01*
X017086Y018621D02*
X017086Y019191D01*
X017086Y019782D02*
X017086Y020487D01*
X016086Y020487D02*
X016086Y019782D01*
X016086Y019191D02*
X016086Y018621D01*
X015086Y018621D02*
X015086Y019191D01*
X015086Y019782D02*
X015086Y020487D01*
X014086Y020487D02*
X014086Y019782D01*
X014086Y019191D02*
X014086Y018621D01*
D17*
X013630Y018556D02*
X011676Y018556D01*
X011676Y018714D02*
X013630Y018714D01*
X013630Y018866D02*
X013630Y018377D01*
X013666Y018289D01*
X013715Y018240D01*
X013702Y018218D01*
X013690Y018173D01*
X013690Y017970D01*
X014068Y017970D01*
X014068Y017934D01*
X013690Y017934D01*
X013690Y017731D01*
X013702Y017686D01*
X013726Y017645D01*
X013759Y017611D01*
X013800Y017587D01*
X013846Y017575D01*
X014068Y017575D01*
X014068Y017934D01*
X014105Y017934D01*
X014105Y017970D01*
X014483Y017970D01*
X014483Y018173D01*
X014471Y018218D01*
X014458Y018240D01*
X014506Y018289D01*
X014543Y018377D01*
X014543Y018866D01*
X014506Y018954D01*
X014481Y018979D01*
X014484Y018986D01*
X014484Y019397D01*
X014447Y019485D01*
X014445Y019487D01*
X014447Y019489D01*
X014484Y019577D01*
X014484Y019987D01*
X014474Y020011D01*
X014586Y020124D01*
X014699Y020011D01*
X014689Y019987D01*
X014689Y019577D01*
X014725Y019489D01*
X014727Y019487D01*
X014725Y019485D01*
X014689Y019397D01*
X014689Y018986D01*
X014692Y018979D01*
X014666Y018954D01*
X014630Y018866D01*
X014630Y018377D01*
X014666Y018289D01*
X014715Y018240D01*
X014702Y018218D01*
X014690Y018173D01*
X014690Y017970D01*
X015068Y017970D01*
X015068Y017934D01*
X014690Y017934D01*
X014690Y017731D01*
X014702Y017686D01*
X014726Y017645D01*
X014759Y017611D01*
X014800Y017587D01*
X014846Y017575D01*
X015068Y017575D01*
X015068Y017934D01*
X015105Y017934D01*
X015105Y017970D01*
X015483Y017970D01*
X015483Y018173D01*
X015471Y018218D01*
X015458Y018240D01*
X015506Y018289D01*
X015543Y018377D01*
X015543Y018866D01*
X015506Y018954D01*
X015481Y018979D01*
X015484Y018986D01*
X015484Y019397D01*
X015447Y019485D01*
X015445Y019487D01*
X015447Y019489D01*
X015484Y019577D01*
X015484Y019987D01*
X015474Y020011D01*
X015586Y020124D01*
X015699Y020011D01*
X015689Y019987D01*
X015689Y019577D01*
X015725Y019489D01*
X015727Y019487D01*
X015725Y019485D01*
X015689Y019397D01*
X015689Y018986D01*
X015692Y018979D01*
X015666Y018954D01*
X015630Y018866D01*
X015630Y018377D01*
X015666Y018289D01*
X015715Y018240D01*
X015702Y018218D01*
X015690Y018173D01*
X015690Y017970D01*
X016068Y017970D01*
X016068Y017934D01*
X015690Y017934D01*
X015690Y017731D01*
X015702Y017686D01*
X015726Y017645D01*
X015759Y017611D01*
X015800Y017587D01*
X015846Y017575D01*
X016068Y017575D01*
X016068Y017934D01*
X016105Y017934D01*
X016105Y017970D01*
X016483Y017970D01*
X016483Y018173D01*
X016471Y018218D01*
X016458Y018240D01*
X016506Y018289D01*
X016543Y018377D01*
X016543Y018866D01*
X016506Y018954D01*
X016481Y018979D01*
X016484Y018986D01*
X016484Y019397D01*
X016447Y019485D01*
X016445Y019487D01*
X016447Y019489D01*
X016484Y019577D01*
X016484Y019987D01*
X016474Y020011D01*
X016586Y020124D01*
X016699Y020011D01*
X016689Y019987D01*
X016689Y019577D01*
X016725Y019489D01*
X016727Y019487D01*
X016725Y019485D01*
X016689Y019397D01*
X016689Y018986D01*
X016692Y018979D01*
X016666Y018954D01*
X016630Y018866D01*
X016630Y018377D01*
X016666Y018289D01*
X016715Y018240D01*
X016702Y018218D01*
X016690Y018173D01*
X016690Y017970D01*
X017068Y017970D01*
X017068Y017934D01*
X016690Y017934D01*
X016690Y017731D01*
X016702Y017686D01*
X016726Y017645D01*
X016759Y017611D01*
X016800Y017587D01*
X016846Y017575D01*
X017068Y017575D01*
X017068Y017934D01*
X017105Y017934D01*
X017105Y017970D01*
X017483Y017970D01*
X017483Y018173D01*
X017471Y018218D01*
X017458Y018240D01*
X017506Y018289D01*
X017543Y018377D01*
X017543Y018866D01*
X017506Y018954D01*
X017481Y018979D01*
X017484Y018986D01*
X017484Y019397D01*
X017447Y019485D01*
X017445Y019487D01*
X017447Y019489D01*
X017484Y019577D01*
X017484Y019987D01*
X017474Y020011D01*
X017586Y020124D01*
X017699Y020011D01*
X017689Y019987D01*
X017689Y019577D01*
X017725Y019489D01*
X017727Y019487D01*
X017725Y019485D01*
X017689Y019397D01*
X017689Y018986D01*
X017692Y018979D01*
X017666Y018954D01*
X017630Y018866D01*
X017630Y018377D01*
X017666Y018289D01*
X017715Y018240D01*
X017702Y018218D01*
X017690Y018173D01*
X017690Y017970D01*
X018068Y017970D01*
X018068Y017934D01*
X017690Y017934D01*
X017690Y017731D01*
X017702Y017686D01*
X017726Y017645D01*
X017759Y017611D01*
X017800Y017587D01*
X017846Y017575D01*
X018068Y017575D01*
X018068Y017934D01*
X018105Y017934D01*
X018105Y017970D01*
X018483Y017970D01*
X018483Y018173D01*
X018471Y018218D01*
X018458Y018240D01*
X018506Y018289D01*
X018543Y018377D01*
X018543Y018866D01*
X018506Y018954D01*
X018481Y018979D01*
X018484Y018986D01*
X018484Y019397D01*
X018447Y019485D01*
X018445Y019487D01*
X018447Y019489D01*
X018484Y019577D01*
X018484Y019987D01*
X018474Y020011D01*
X018492Y020030D01*
X018513Y019981D01*
X018580Y019913D01*
X018669Y019877D01*
X018689Y019877D01*
X018689Y019577D01*
X018725Y019489D01*
X018727Y019487D01*
X018725Y019485D01*
X018689Y019397D01*
X018689Y018986D01*
X018692Y018979D01*
X018666Y018954D01*
X018630Y018866D01*
X018630Y018377D01*
X018666Y018289D01*
X018715Y018240D01*
X018702Y018218D01*
X018690Y018173D01*
X018690Y017970D01*
X019068Y017970D01*
X019068Y017934D01*
X018690Y017934D01*
X018690Y017731D01*
X018702Y017686D01*
X018726Y017645D01*
X018759Y017611D01*
X018800Y017587D01*
X018846Y017575D01*
X019068Y017575D01*
X019068Y017934D01*
X019105Y017934D01*
X019105Y017970D01*
X019483Y017970D01*
X019483Y018173D01*
X019471Y018218D01*
X019458Y018240D01*
X019506Y018289D01*
X019543Y018377D01*
X019543Y018866D01*
X019506Y018954D01*
X019481Y018979D01*
X019484Y018986D01*
X019484Y019397D01*
X019447Y019485D01*
X019445Y019487D01*
X019447Y019489D01*
X019484Y019577D01*
X019484Y019877D01*
X019504Y019877D01*
X019592Y019913D01*
X019660Y019981D01*
X019696Y020069D01*
X019696Y020747D01*
X020134Y020747D01*
X020076Y020608D01*
X020076Y020365D01*
X020169Y020141D01*
X020299Y020011D01*
X020289Y019987D01*
X020289Y019577D01*
X020325Y019489D01*
X020327Y019487D01*
X020325Y019485D01*
X020289Y019397D01*
X020289Y018986D01*
X020292Y018979D01*
X020266Y018954D01*
X020230Y018866D01*
X020230Y018377D01*
X020266Y018289D01*
X020315Y018240D01*
X020302Y018218D01*
X020290Y018173D01*
X020290Y017970D01*
X020668Y017970D01*
X020668Y017934D01*
X020290Y017934D01*
X020290Y017731D01*
X020302Y017686D01*
X020326Y017645D01*
X020359Y017611D01*
X020400Y017587D01*
X020446Y017575D01*
X020668Y017575D01*
X020668Y017934D01*
X020705Y017934D01*
X020705Y017970D01*
X021083Y017970D01*
X021083Y018173D01*
X021071Y018218D01*
X021058Y018240D01*
X021106Y018289D01*
X021143Y018377D01*
X021143Y018866D01*
X021106Y018954D01*
X021081Y018979D01*
X021084Y018986D01*
X021084Y019397D01*
X021047Y019485D01*
X021045Y019487D01*
X021047Y019489D01*
X021084Y019577D01*
X021084Y019987D01*
X021074Y020011D01*
X021186Y020124D01*
X021299Y020011D01*
X021289Y019987D01*
X021289Y019577D01*
X021325Y019489D01*
X021327Y019487D01*
X021325Y019485D01*
X021289Y019397D01*
X021289Y018986D01*
X021292Y018979D01*
X021266Y018954D01*
X021230Y018866D01*
X021230Y018377D01*
X021266Y018289D01*
X021315Y018240D01*
X021302Y018218D01*
X021290Y018173D01*
X021290Y017970D01*
X021668Y017970D01*
X021668Y017934D01*
X021290Y017934D01*
X021290Y017731D01*
X021302Y017686D01*
X021326Y017645D01*
X021359Y017611D01*
X021400Y017587D01*
X021446Y017575D01*
X021668Y017575D01*
X021668Y017934D01*
X021705Y017934D01*
X021705Y017970D01*
X022083Y017970D01*
X022083Y018173D01*
X022071Y018218D01*
X022058Y018240D01*
X022106Y018289D01*
X022143Y018377D01*
X022143Y018866D01*
X022106Y018954D01*
X022081Y018979D01*
X022084Y018986D01*
X022084Y019397D01*
X022047Y019485D01*
X022045Y019487D01*
X022047Y019489D01*
X022084Y019577D01*
X022084Y019987D01*
X022074Y020011D01*
X022186Y020124D01*
X022299Y020011D01*
X022289Y019987D01*
X022289Y019577D01*
X022325Y019489D01*
X022327Y019487D01*
X022325Y019485D01*
X022289Y019397D01*
X022289Y018986D01*
X022292Y018979D01*
X022266Y018954D01*
X022230Y018866D01*
X022230Y018377D01*
X022266Y018289D01*
X022315Y018240D01*
X022302Y018218D01*
X022290Y018173D01*
X022290Y017970D01*
X022668Y017970D01*
X022668Y017934D01*
X022290Y017934D01*
X022290Y017731D01*
X022302Y017686D01*
X022326Y017645D01*
X022359Y017611D01*
X022400Y017587D01*
X022446Y017575D01*
X022668Y017575D01*
X022668Y017934D01*
X022705Y017934D01*
X022705Y017970D01*
X023083Y017970D01*
X023083Y018173D01*
X023071Y018218D01*
X023058Y018240D01*
X023106Y018289D01*
X023143Y018377D01*
X023143Y018866D01*
X023106Y018954D01*
X023081Y018979D01*
X023084Y018986D01*
X023084Y019397D01*
X023047Y019485D01*
X023045Y019487D01*
X023047Y019489D01*
X023084Y019577D01*
X023084Y019987D01*
X023074Y020011D01*
X023186Y020124D01*
X023299Y020011D01*
X023289Y019987D01*
X023289Y019577D01*
X023325Y019489D01*
X023327Y019487D01*
X023325Y019485D01*
X023289Y019397D01*
X023289Y018986D01*
X023292Y018979D01*
X023266Y018954D01*
X023230Y018866D01*
X023230Y018377D01*
X023266Y018289D01*
X023315Y018240D01*
X023302Y018218D01*
X023290Y018173D01*
X023290Y017970D01*
X023668Y017970D01*
X023668Y017934D01*
X023290Y017934D01*
X023290Y017731D01*
X023302Y017686D01*
X023326Y017645D01*
X023359Y017611D01*
X023400Y017587D01*
X023446Y017575D01*
X023668Y017575D01*
X023668Y017934D01*
X023705Y017934D01*
X023705Y017970D01*
X024083Y017970D01*
X024083Y018173D01*
X024071Y018218D01*
X024058Y018240D01*
X024106Y018289D01*
X024143Y018377D01*
X024143Y018866D01*
X024106Y018954D01*
X024081Y018979D01*
X024084Y018986D01*
X024084Y019397D01*
X024047Y019485D01*
X024045Y019487D01*
X024047Y019489D01*
X024084Y019577D01*
X024084Y019987D01*
X024074Y020011D01*
X024186Y020124D01*
X024299Y020011D01*
X024289Y019987D01*
X024289Y019577D01*
X024325Y019489D01*
X024327Y019487D01*
X024325Y019485D01*
X024289Y019397D01*
X024289Y018986D01*
X024292Y018979D01*
X024266Y018954D01*
X024230Y018866D01*
X024230Y018377D01*
X024266Y018289D01*
X024315Y018240D01*
X024302Y018218D01*
X024290Y018173D01*
X024290Y017970D01*
X024668Y017970D01*
X024668Y017934D01*
X024290Y017934D01*
X024290Y017731D01*
X024302Y017686D01*
X024326Y017645D01*
X024359Y017611D01*
X024400Y017587D01*
X024446Y017575D01*
X024668Y017575D01*
X024668Y017934D01*
X024705Y017934D01*
X024705Y017970D01*
X025083Y017970D01*
X025083Y018173D01*
X025071Y018218D01*
X025058Y018240D01*
X025106Y018289D01*
X025143Y018377D01*
X025143Y018866D01*
X025106Y018954D01*
X025081Y018979D01*
X025084Y018986D01*
X025084Y019397D01*
X025047Y019485D01*
X025045Y019487D01*
X025047Y019489D01*
X025084Y019577D01*
X025084Y019987D01*
X025074Y020011D01*
X025186Y020124D01*
X025299Y020011D01*
X025289Y019987D01*
X025289Y019577D01*
X025325Y019489D01*
X025327Y019487D01*
X025325Y019485D01*
X025289Y019397D01*
X025289Y018986D01*
X025292Y018979D01*
X025266Y018954D01*
X025230Y018866D01*
X025230Y018377D01*
X025266Y018289D01*
X025315Y018240D01*
X025302Y018218D01*
X025290Y018173D01*
X025290Y017970D01*
X025668Y017970D01*
X025668Y017934D01*
X025290Y017934D01*
X025290Y017731D01*
X025302Y017686D01*
X025326Y017645D01*
X025359Y017611D01*
X025400Y017587D01*
X025446Y017575D01*
X025668Y017575D01*
X025668Y017934D01*
X025705Y017934D01*
X025705Y017970D01*
X026083Y017970D01*
X026083Y018173D01*
X026071Y018218D01*
X026058Y018240D01*
X026106Y018289D01*
X026143Y018377D01*
X026143Y018866D01*
X026106Y018954D01*
X026081Y018979D01*
X026084Y018986D01*
X026084Y019397D01*
X026047Y019485D01*
X026045Y019487D01*
X026047Y019489D01*
X026084Y019577D01*
X026084Y019987D01*
X026074Y020011D01*
X026186Y020124D01*
X026299Y020011D01*
X026289Y019987D01*
X026289Y019577D01*
X026325Y019489D01*
X026327Y019487D01*
X026325Y019485D01*
X026289Y019397D01*
X026289Y018986D01*
X026292Y018979D01*
X026266Y018954D01*
X026230Y018866D01*
X026230Y018377D01*
X026266Y018289D01*
X026315Y018240D01*
X026302Y018218D01*
X026290Y018173D01*
X026290Y017970D01*
X026668Y017970D01*
X026668Y017934D01*
X026290Y017934D01*
X026290Y017731D01*
X026302Y017686D01*
X026326Y017645D01*
X026359Y017611D01*
X026400Y017587D01*
X026446Y017575D01*
X026668Y017575D01*
X026668Y017934D01*
X026705Y017934D01*
X026705Y017970D01*
X027083Y017970D01*
X027083Y018173D01*
X027071Y018218D01*
X027058Y018240D01*
X027106Y018289D01*
X027143Y018377D01*
X027143Y018866D01*
X027106Y018954D01*
X027081Y018979D01*
X027084Y018986D01*
X027084Y019397D01*
X027047Y019485D01*
X027045Y019487D01*
X027047Y019489D01*
X027084Y019577D01*
X027084Y019987D01*
X027074Y020011D01*
X027092Y020030D01*
X027113Y019981D01*
X027180Y019913D01*
X027269Y019877D01*
X027289Y019877D01*
X027289Y019577D01*
X027325Y019489D01*
X027327Y019487D01*
X027325Y019485D01*
X027289Y019397D01*
X027289Y018986D01*
X027292Y018979D01*
X027266Y018954D01*
X027230Y018866D01*
X027230Y018377D01*
X027266Y018289D01*
X027315Y018240D01*
X027302Y018218D01*
X027290Y018173D01*
X027290Y017970D01*
X027668Y017970D01*
X027668Y017934D01*
X027290Y017934D01*
X027290Y017731D01*
X027302Y017686D01*
X027326Y017645D01*
X027359Y017611D01*
X027400Y017587D01*
X027446Y017575D01*
X027668Y017575D01*
X027668Y017934D01*
X027705Y017934D01*
X027705Y017970D01*
X028083Y017970D01*
X028083Y018173D01*
X028071Y018218D01*
X028058Y018240D01*
X028106Y018289D01*
X028143Y018377D01*
X028143Y018866D01*
X028106Y018954D01*
X028081Y018979D01*
X028084Y018986D01*
X028084Y019397D01*
X028047Y019485D01*
X028045Y019487D01*
X028047Y019489D01*
X028084Y019577D01*
X028084Y019877D01*
X028104Y019877D01*
X028192Y019913D01*
X028260Y019981D01*
X028296Y020069D01*
X028296Y020747D01*
X028446Y020747D01*
X028446Y017487D01*
X011676Y017487D01*
X011676Y020034D01*
X011741Y019970D01*
X011965Y019877D01*
X012208Y019877D01*
X012432Y019970D01*
X012603Y020141D01*
X012658Y020141D01*
X012667Y020128D02*
X012728Y020067D01*
X012798Y020016D01*
X012875Y019977D01*
X012958Y019950D01*
X013043Y019937D01*
X013066Y019937D01*
X013066Y020467D01*
X013106Y020467D01*
X013106Y019937D01*
X013130Y019937D01*
X013215Y019950D01*
X013297Y019977D01*
X013375Y020016D01*
X013445Y020067D01*
X013506Y020128D01*
X013550Y020189D01*
X013569Y020141D01*
X013699Y020011D01*
X013689Y019987D01*
X013689Y019577D01*
X013725Y019489D01*
X013727Y019487D01*
X013725Y019485D01*
X013689Y019397D01*
X013689Y018986D01*
X013692Y018979D01*
X013666Y018954D01*
X013630Y018866D01*
X013633Y018873D02*
X011676Y018873D01*
X011676Y019031D02*
X013689Y019031D01*
X013689Y019190D02*
X011676Y019190D01*
X011676Y019348D02*
X013689Y019348D01*
X013718Y019507D02*
X011676Y019507D01*
X011676Y019665D02*
X013689Y019665D01*
X013689Y019824D02*
X011676Y019824D01*
X011676Y019982D02*
X011728Y019982D01*
X012444Y019982D02*
X012865Y019982D01*
X013066Y019982D02*
X013106Y019982D01*
X013106Y020141D02*
X013066Y020141D01*
X013066Y020299D02*
X013106Y020299D01*
X013106Y020458D02*
X013066Y020458D01*
X013515Y020141D02*
X013570Y020141D01*
X013689Y019982D02*
X013308Y019982D01*
X012667Y020128D02*
X012623Y020189D01*
X012603Y020141D01*
X014484Y019982D02*
X014689Y019982D01*
X014689Y019824D02*
X014484Y019824D01*
X014484Y019665D02*
X014689Y019665D01*
X014718Y019507D02*
X014455Y019507D01*
X014484Y019348D02*
X014689Y019348D01*
X014689Y019190D02*
X014484Y019190D01*
X014484Y019031D02*
X014689Y019031D01*
X014633Y018873D02*
X014540Y018873D01*
X014543Y018714D02*
X014630Y018714D01*
X014630Y018556D02*
X014543Y018556D01*
X014543Y018397D02*
X014630Y018397D01*
X014714Y018239D02*
X014459Y018239D01*
X014483Y018080D02*
X014690Y018080D01*
X014690Y017922D02*
X014483Y017922D01*
X014483Y017934D02*
X014105Y017934D01*
X014105Y017575D01*
X014327Y017575D01*
X014372Y017587D01*
X014413Y017611D01*
X014447Y017645D01*
X014471Y017686D01*
X014483Y017731D01*
X014483Y017934D01*
X014483Y017763D02*
X014690Y017763D01*
X014770Y017605D02*
X014402Y017605D01*
X014105Y017605D02*
X014068Y017605D01*
X014068Y017763D02*
X014105Y017763D01*
X014105Y017922D02*
X014068Y017922D01*
X013690Y017922D02*
X011676Y017922D01*
X011676Y018080D02*
X013690Y018080D01*
X013714Y018239D02*
X011676Y018239D01*
X011676Y018397D02*
X013630Y018397D01*
X013690Y017763D02*
X011676Y017763D01*
X011676Y017605D02*
X013770Y017605D01*
X015068Y017605D02*
X015105Y017605D01*
X015105Y017575D02*
X015327Y017575D01*
X015372Y017587D01*
X015413Y017611D01*
X015447Y017645D01*
X015471Y017686D01*
X015483Y017731D01*
X015483Y017934D01*
X015105Y017934D01*
X015105Y017575D01*
X015105Y017763D02*
X015068Y017763D01*
X015068Y017922D02*
X015105Y017922D01*
X015483Y017922D02*
X015690Y017922D01*
X015690Y018080D02*
X015483Y018080D01*
X015459Y018239D02*
X015714Y018239D01*
X015630Y018397D02*
X015543Y018397D01*
X015543Y018556D02*
X015630Y018556D01*
X015630Y018714D02*
X015543Y018714D01*
X015540Y018873D02*
X015633Y018873D01*
X015689Y019031D02*
X015484Y019031D01*
X015484Y019190D02*
X015689Y019190D01*
X015689Y019348D02*
X015484Y019348D01*
X015455Y019507D02*
X015718Y019507D01*
X015689Y019665D02*
X015484Y019665D01*
X015484Y019824D02*
X015689Y019824D01*
X015689Y019982D02*
X015484Y019982D01*
X016484Y019982D02*
X016689Y019982D01*
X016689Y019824D02*
X016484Y019824D01*
X016484Y019665D02*
X016689Y019665D01*
X016718Y019507D02*
X016455Y019507D01*
X016484Y019348D02*
X016689Y019348D01*
X016689Y019190D02*
X016484Y019190D01*
X016484Y019031D02*
X016689Y019031D01*
X016633Y018873D02*
X016540Y018873D01*
X016543Y018714D02*
X016630Y018714D01*
X016630Y018556D02*
X016543Y018556D01*
X016543Y018397D02*
X016630Y018397D01*
X016714Y018239D02*
X016459Y018239D01*
X016483Y018080D02*
X016690Y018080D01*
X016690Y017922D02*
X016483Y017922D01*
X016483Y017934D02*
X016105Y017934D01*
X016105Y017575D01*
X016327Y017575D01*
X016372Y017587D01*
X016413Y017611D01*
X016447Y017645D01*
X016471Y017686D01*
X016483Y017731D01*
X016483Y017934D01*
X016483Y017763D02*
X016690Y017763D01*
X016770Y017605D02*
X016402Y017605D01*
X016105Y017605D02*
X016068Y017605D01*
X016068Y017763D02*
X016105Y017763D01*
X016105Y017922D02*
X016068Y017922D01*
X015690Y017763D02*
X015483Y017763D01*
X015402Y017605D02*
X015770Y017605D01*
X017068Y017605D02*
X017105Y017605D01*
X017105Y017575D02*
X017327Y017575D01*
X017372Y017587D01*
X017413Y017611D01*
X017447Y017645D01*
X017471Y017686D01*
X017483Y017731D01*
X017483Y017934D01*
X017105Y017934D01*
X017105Y017575D01*
X017105Y017763D02*
X017068Y017763D01*
X017068Y017922D02*
X017105Y017922D01*
X017483Y017922D02*
X017690Y017922D01*
X017690Y018080D02*
X017483Y018080D01*
X017459Y018239D02*
X017714Y018239D01*
X017630Y018397D02*
X017543Y018397D01*
X017543Y018556D02*
X017630Y018556D01*
X017630Y018714D02*
X017543Y018714D01*
X017540Y018873D02*
X017633Y018873D01*
X017689Y019031D02*
X017484Y019031D01*
X017484Y019190D02*
X017689Y019190D01*
X017689Y019348D02*
X017484Y019348D01*
X017455Y019507D02*
X017718Y019507D01*
X017689Y019665D02*
X017484Y019665D01*
X017484Y019824D02*
X017689Y019824D01*
X017689Y019982D02*
X017484Y019982D01*
X018484Y019982D02*
X018512Y019982D01*
X018484Y019824D02*
X018689Y019824D01*
X018689Y019665D02*
X018484Y019665D01*
X018455Y019507D02*
X018718Y019507D01*
X018689Y019348D02*
X018484Y019348D01*
X018484Y019190D02*
X018689Y019190D01*
X018689Y019031D02*
X018484Y019031D01*
X018540Y018873D02*
X018633Y018873D01*
X018630Y018714D02*
X018543Y018714D01*
X018543Y018556D02*
X018630Y018556D01*
X018630Y018397D02*
X018543Y018397D01*
X018459Y018239D02*
X018714Y018239D01*
X018690Y018080D02*
X018483Y018080D01*
X018483Y017934D02*
X018105Y017934D01*
X018105Y017575D01*
X018327Y017575D01*
X018372Y017587D01*
X018413Y017611D01*
X018447Y017645D01*
X018471Y017686D01*
X018483Y017731D01*
X018483Y017934D01*
X018483Y017922D02*
X018690Y017922D01*
X018690Y017763D02*
X018483Y017763D01*
X018402Y017605D02*
X018770Y017605D01*
X019068Y017605D02*
X019105Y017605D01*
X019105Y017575D02*
X019327Y017575D01*
X019372Y017587D01*
X019413Y017611D01*
X019447Y017645D01*
X019471Y017686D01*
X019483Y017731D01*
X019483Y017934D01*
X019105Y017934D01*
X019105Y017575D01*
X019105Y017763D02*
X019068Y017763D01*
X019068Y017922D02*
X019105Y017922D01*
X019483Y017922D02*
X020290Y017922D01*
X020290Y018080D02*
X019483Y018080D01*
X019459Y018239D02*
X020314Y018239D01*
X020230Y018397D02*
X019543Y018397D01*
X019543Y018556D02*
X020230Y018556D01*
X020230Y018714D02*
X019543Y018714D01*
X019540Y018873D02*
X020233Y018873D01*
X020289Y019031D02*
X019484Y019031D01*
X019484Y019190D02*
X020289Y019190D01*
X020289Y019348D02*
X019484Y019348D01*
X019455Y019507D02*
X020318Y019507D01*
X020289Y019665D02*
X019484Y019665D01*
X019484Y019824D02*
X020289Y019824D01*
X020289Y019982D02*
X019660Y019982D01*
X019696Y020141D02*
X020170Y020141D01*
X020104Y020299D02*
X019696Y020299D01*
X019696Y020458D02*
X020076Y020458D01*
X020080Y020616D02*
X019696Y020616D01*
X021084Y019982D02*
X021289Y019982D01*
X021289Y019824D02*
X021084Y019824D01*
X021084Y019665D02*
X021289Y019665D01*
X021318Y019507D02*
X021055Y019507D01*
X021084Y019348D02*
X021289Y019348D01*
X021289Y019190D02*
X021084Y019190D01*
X021084Y019031D02*
X021289Y019031D01*
X021233Y018873D02*
X021140Y018873D01*
X021143Y018714D02*
X021230Y018714D01*
X021230Y018556D02*
X021143Y018556D01*
X021143Y018397D02*
X021230Y018397D01*
X021314Y018239D02*
X021059Y018239D01*
X021083Y018080D02*
X021290Y018080D01*
X021290Y017922D02*
X021083Y017922D01*
X021083Y017934D02*
X020705Y017934D01*
X020705Y017575D01*
X020927Y017575D01*
X020972Y017587D01*
X021013Y017611D01*
X021047Y017645D01*
X021071Y017686D01*
X021083Y017731D01*
X021083Y017934D01*
X021083Y017763D02*
X021290Y017763D01*
X021370Y017605D02*
X021002Y017605D01*
X020705Y017605D02*
X020668Y017605D01*
X020668Y017763D02*
X020705Y017763D01*
X020705Y017922D02*
X020668Y017922D01*
X020290Y017763D02*
X019483Y017763D01*
X019402Y017605D02*
X020370Y017605D01*
X021668Y017605D02*
X021705Y017605D01*
X021705Y017575D02*
X021927Y017575D01*
X021972Y017587D01*
X022013Y017611D01*
X022047Y017645D01*
X022071Y017686D01*
X022083Y017731D01*
X022083Y017934D01*
X021705Y017934D01*
X021705Y017575D01*
X021705Y017763D02*
X021668Y017763D01*
X021668Y017922D02*
X021705Y017922D01*
X022083Y017922D02*
X022290Y017922D01*
X022290Y018080D02*
X022083Y018080D01*
X022059Y018239D02*
X022314Y018239D01*
X022230Y018397D02*
X022143Y018397D01*
X022143Y018556D02*
X022230Y018556D01*
X022230Y018714D02*
X022143Y018714D01*
X022140Y018873D02*
X022233Y018873D01*
X022289Y019031D02*
X022084Y019031D01*
X022084Y019190D02*
X022289Y019190D01*
X022289Y019348D02*
X022084Y019348D01*
X022055Y019507D02*
X022318Y019507D01*
X022289Y019665D02*
X022084Y019665D01*
X022084Y019824D02*
X022289Y019824D01*
X022289Y019982D02*
X022084Y019982D01*
X023084Y019982D02*
X023289Y019982D01*
X023289Y019824D02*
X023084Y019824D01*
X023084Y019665D02*
X023289Y019665D01*
X023318Y019507D02*
X023055Y019507D01*
X023084Y019348D02*
X023289Y019348D01*
X023289Y019190D02*
X023084Y019190D01*
X023084Y019031D02*
X023289Y019031D01*
X023233Y018873D02*
X023140Y018873D01*
X023143Y018714D02*
X023230Y018714D01*
X023230Y018556D02*
X023143Y018556D01*
X023143Y018397D02*
X023230Y018397D01*
X023314Y018239D02*
X023059Y018239D01*
X023083Y018080D02*
X023290Y018080D01*
X023290Y017922D02*
X023083Y017922D01*
X023083Y017934D02*
X022705Y017934D01*
X022705Y017575D01*
X022927Y017575D01*
X022972Y017587D01*
X023013Y017611D01*
X023047Y017645D01*
X023071Y017686D01*
X023083Y017731D01*
X023083Y017934D01*
X023083Y017763D02*
X023290Y017763D01*
X023370Y017605D02*
X023002Y017605D01*
X022705Y017605D02*
X022668Y017605D01*
X022668Y017763D02*
X022705Y017763D01*
X022705Y017922D02*
X022668Y017922D01*
X022290Y017763D02*
X022083Y017763D01*
X022002Y017605D02*
X022370Y017605D01*
X023668Y017605D02*
X023705Y017605D01*
X023705Y017575D02*
X023927Y017575D01*
X023972Y017587D01*
X024013Y017611D01*
X024047Y017645D01*
X024071Y017686D01*
X024083Y017731D01*
X024083Y017934D01*
X023705Y017934D01*
X023705Y017575D01*
X023705Y017763D02*
X023668Y017763D01*
X023668Y017922D02*
X023705Y017922D01*
X024083Y017922D02*
X024290Y017922D01*
X024290Y018080D02*
X024083Y018080D01*
X024059Y018239D02*
X024314Y018239D01*
X024230Y018397D02*
X024143Y018397D01*
X024143Y018556D02*
X024230Y018556D01*
X024230Y018714D02*
X024143Y018714D01*
X024140Y018873D02*
X024233Y018873D01*
X024289Y019031D02*
X024084Y019031D01*
X024084Y019190D02*
X024289Y019190D01*
X024289Y019348D02*
X024084Y019348D01*
X024055Y019507D02*
X024318Y019507D01*
X024289Y019665D02*
X024084Y019665D01*
X024084Y019824D02*
X024289Y019824D01*
X024289Y019982D02*
X024084Y019982D01*
X025084Y019982D02*
X025289Y019982D01*
X025289Y019824D02*
X025084Y019824D01*
X025084Y019665D02*
X025289Y019665D01*
X025318Y019507D02*
X025055Y019507D01*
X025084Y019348D02*
X025289Y019348D01*
X025289Y019190D02*
X025084Y019190D01*
X025084Y019031D02*
X025289Y019031D01*
X025233Y018873D02*
X025140Y018873D01*
X025143Y018714D02*
X025230Y018714D01*
X025230Y018556D02*
X025143Y018556D01*
X025143Y018397D02*
X025230Y018397D01*
X025314Y018239D02*
X025059Y018239D01*
X025083Y018080D02*
X025290Y018080D01*
X025290Y017922D02*
X025083Y017922D01*
X025083Y017934D02*
X024705Y017934D01*
X024705Y017575D01*
X024927Y017575D01*
X024972Y017587D01*
X025013Y017611D01*
X025047Y017645D01*
X025071Y017686D01*
X025083Y017731D01*
X025083Y017934D01*
X025083Y017763D02*
X025290Y017763D01*
X025370Y017605D02*
X025002Y017605D01*
X024705Y017605D02*
X024668Y017605D01*
X024668Y017763D02*
X024705Y017763D01*
X024705Y017922D02*
X024668Y017922D01*
X024290Y017763D02*
X024083Y017763D01*
X024002Y017605D02*
X024370Y017605D01*
X025668Y017605D02*
X025705Y017605D01*
X025705Y017575D02*
X025927Y017575D01*
X025972Y017587D01*
X026013Y017611D01*
X026047Y017645D01*
X026071Y017686D01*
X026083Y017731D01*
X026083Y017934D01*
X025705Y017934D01*
X025705Y017575D01*
X025705Y017763D02*
X025668Y017763D01*
X025668Y017922D02*
X025705Y017922D01*
X026083Y017922D02*
X026290Y017922D01*
X026290Y018080D02*
X026083Y018080D01*
X026059Y018239D02*
X026314Y018239D01*
X026230Y018397D02*
X026143Y018397D01*
X026143Y018556D02*
X026230Y018556D01*
X026230Y018714D02*
X026143Y018714D01*
X026140Y018873D02*
X026233Y018873D01*
X026289Y019031D02*
X026084Y019031D01*
X026084Y019190D02*
X026289Y019190D01*
X026289Y019348D02*
X026084Y019348D01*
X026055Y019507D02*
X026318Y019507D01*
X026289Y019665D02*
X026084Y019665D01*
X026084Y019824D02*
X026289Y019824D01*
X026289Y019982D02*
X026084Y019982D01*
X027084Y019982D02*
X027112Y019982D01*
X027084Y019824D02*
X027289Y019824D01*
X027289Y019665D02*
X027084Y019665D01*
X027055Y019507D02*
X027318Y019507D01*
X027289Y019348D02*
X027084Y019348D01*
X027084Y019190D02*
X027289Y019190D01*
X027289Y019031D02*
X027084Y019031D01*
X027140Y018873D02*
X027233Y018873D01*
X027230Y018714D02*
X027143Y018714D01*
X027143Y018556D02*
X027230Y018556D01*
X027230Y018397D02*
X027143Y018397D01*
X027059Y018239D02*
X027314Y018239D01*
X027290Y018080D02*
X027083Y018080D01*
X027083Y017934D02*
X026705Y017934D01*
X026705Y017575D01*
X026927Y017575D01*
X026972Y017587D01*
X027013Y017611D01*
X027047Y017645D01*
X027071Y017686D01*
X027083Y017731D01*
X027083Y017934D01*
X027083Y017922D02*
X027290Y017922D01*
X027290Y017763D02*
X027083Y017763D01*
X027002Y017605D02*
X027370Y017605D01*
X027668Y017605D02*
X027705Y017605D01*
X027705Y017575D02*
X027927Y017575D01*
X027972Y017587D01*
X028013Y017611D01*
X028047Y017645D01*
X028071Y017686D01*
X028083Y017731D01*
X028083Y017934D01*
X027705Y017934D01*
X027705Y017575D01*
X027705Y017763D02*
X027668Y017763D01*
X027668Y017922D02*
X027705Y017922D01*
X028083Y017922D02*
X028446Y017922D01*
X028446Y018080D02*
X028083Y018080D01*
X028059Y018239D02*
X028446Y018239D01*
X028446Y018397D02*
X028143Y018397D01*
X028143Y018556D02*
X028446Y018556D01*
X028446Y018714D02*
X028143Y018714D01*
X028140Y018873D02*
X028446Y018873D01*
X028446Y019031D02*
X028084Y019031D01*
X028084Y019190D02*
X028446Y019190D01*
X028446Y019348D02*
X028084Y019348D01*
X028055Y019507D02*
X028446Y019507D01*
X028446Y019665D02*
X028084Y019665D01*
X028084Y019824D02*
X028446Y019824D01*
X028446Y019982D02*
X028260Y019982D01*
X028296Y020141D02*
X028446Y020141D01*
X028446Y020299D02*
X028296Y020299D01*
X028296Y020458D02*
X028446Y020458D01*
X028446Y020616D02*
X028296Y020616D01*
X026705Y017922D02*
X026668Y017922D01*
X026668Y017763D02*
X026705Y017763D01*
X026705Y017605D02*
X026668Y017605D01*
X026370Y017605D02*
X026002Y017605D01*
X026083Y017763D02*
X026290Y017763D01*
X028002Y017605D02*
X028446Y017605D01*
X028446Y017763D02*
X028083Y017763D01*
X018105Y017763D02*
X018068Y017763D01*
X018068Y017605D02*
X018105Y017605D01*
X017770Y017605D02*
X017402Y017605D01*
X017483Y017763D02*
X017690Y017763D01*
X018068Y017922D02*
X018105Y017922D01*
X011676Y005487D02*
X028446Y005487D01*
X028446Y001227D01*
X028239Y001227D01*
X028296Y001365D01*
X028296Y001608D01*
X028203Y001832D01*
X028032Y002004D01*
X027976Y002027D01*
X027976Y002829D01*
X027980Y002830D01*
X028047Y002898D01*
X028084Y002986D01*
X028084Y003397D01*
X028047Y003485D01*
X028045Y003487D01*
X028047Y003489D01*
X028084Y003577D01*
X028084Y003987D01*
X028066Y004029D01*
X028106Y004069D01*
X028143Y004157D01*
X028143Y004647D01*
X028106Y004735D01*
X028058Y004783D01*
X028071Y004805D01*
X028083Y004851D01*
X028083Y005053D01*
X027705Y005053D01*
X027705Y005090D01*
X027668Y005090D01*
X027668Y005448D01*
X027446Y005448D01*
X027400Y005436D01*
X027359Y005412D01*
X027326Y005379D01*
X027302Y005338D01*
X027290Y005292D01*
X027290Y005090D01*
X027668Y005090D01*
X027668Y005053D01*
X027290Y005053D01*
X027290Y004851D01*
X027302Y004805D01*
X027315Y004783D01*
X027266Y004735D01*
X027230Y004647D01*
X027230Y004157D01*
X027266Y004069D01*
X027306Y004029D01*
X027289Y003987D01*
X027289Y003577D01*
X027325Y003489D01*
X027327Y003487D01*
X027325Y003485D01*
X027289Y003397D01*
X027289Y002986D01*
X027325Y002898D01*
X027393Y002830D01*
X027396Y002829D01*
X027396Y002027D01*
X027341Y002004D01*
X027186Y001849D01*
X027032Y002004D01*
X026976Y002027D01*
X026976Y002829D01*
X026980Y002830D01*
X027047Y002898D01*
X027084Y002986D01*
X027084Y003397D01*
X027047Y003485D01*
X027045Y003487D01*
X027047Y003489D01*
X027084Y003577D01*
X027084Y003987D01*
X027066Y004029D01*
X027106Y004069D01*
X027143Y004157D01*
X027143Y004647D01*
X027106Y004735D01*
X027058Y004783D01*
X027071Y004805D01*
X027083Y004851D01*
X027083Y005053D01*
X026705Y005053D01*
X026705Y005090D01*
X026668Y005090D01*
X026668Y005448D01*
X026446Y005448D01*
X026400Y005436D01*
X026359Y005412D01*
X026326Y005379D01*
X026302Y005338D01*
X026290Y005292D01*
X026290Y005090D01*
X026668Y005090D01*
X026668Y005053D01*
X026290Y005053D01*
X026290Y004851D01*
X026302Y004805D01*
X026315Y004783D01*
X026266Y004735D01*
X026230Y004647D01*
X026230Y004157D01*
X026266Y004069D01*
X026306Y004029D01*
X026289Y003987D01*
X026289Y003577D01*
X026325Y003489D01*
X026327Y003487D01*
X026325Y003485D01*
X026289Y003397D01*
X026289Y002986D01*
X026325Y002898D01*
X026393Y002830D01*
X026396Y002829D01*
X026396Y002027D01*
X026341Y002004D01*
X026186Y001849D01*
X026032Y002004D01*
X025976Y002027D01*
X025976Y002829D01*
X025980Y002830D01*
X026047Y002898D01*
X026084Y002986D01*
X026084Y003397D01*
X026047Y003485D01*
X026045Y003487D01*
X026047Y003489D01*
X026084Y003577D01*
X026084Y003987D01*
X026066Y004029D01*
X026106Y004069D01*
X026143Y004157D01*
X026143Y004647D01*
X026106Y004735D01*
X026058Y004783D01*
X026071Y004805D01*
X026083Y004851D01*
X026083Y005053D01*
X025705Y005053D01*
X025705Y005090D01*
X025668Y005090D01*
X025668Y005448D01*
X025446Y005448D01*
X025400Y005436D01*
X025359Y005412D01*
X025326Y005379D01*
X025302Y005338D01*
X025290Y005292D01*
X025290Y005090D01*
X025668Y005090D01*
X025668Y005053D01*
X025290Y005053D01*
X025290Y004851D01*
X025302Y004805D01*
X025315Y004783D01*
X025266Y004735D01*
X025230Y004647D01*
X025230Y004157D01*
X025266Y004069D01*
X025306Y004029D01*
X025289Y003987D01*
X025289Y003577D01*
X025325Y003489D01*
X025327Y003487D01*
X025325Y003485D01*
X025289Y003397D01*
X025289Y002986D01*
X025325Y002898D01*
X025393Y002830D01*
X025396Y002829D01*
X025396Y002027D01*
X025341Y002004D01*
X025186Y001849D01*
X025032Y002004D01*
X024976Y002027D01*
X024976Y002829D01*
X024980Y002830D01*
X025047Y002898D01*
X025084Y002986D01*
X025084Y003397D01*
X025047Y003485D01*
X025045Y003487D01*
X025047Y003489D01*
X025084Y003577D01*
X025084Y003987D01*
X025066Y004029D01*
X025106Y004069D01*
X025143Y004157D01*
X025143Y004647D01*
X025106Y004735D01*
X025058Y004783D01*
X025071Y004805D01*
X025083Y004851D01*
X025083Y005053D01*
X024705Y005053D01*
X024705Y005090D01*
X024668Y005090D01*
X024668Y005448D01*
X024446Y005448D01*
X024400Y005436D01*
X024359Y005412D01*
X024326Y005379D01*
X024302Y005338D01*
X024290Y005292D01*
X024290Y005090D01*
X024668Y005090D01*
X024668Y005053D01*
X024290Y005053D01*
X024290Y004851D01*
X024302Y004805D01*
X024315Y004783D01*
X024266Y004735D01*
X024230Y004647D01*
X024230Y004157D01*
X024266Y004069D01*
X024306Y004029D01*
X024289Y003987D01*
X024289Y003577D01*
X024325Y003489D01*
X024327Y003487D01*
X024325Y003485D01*
X024289Y003397D01*
X024289Y002986D01*
X024325Y002898D01*
X024393Y002830D01*
X024396Y002829D01*
X024396Y002027D01*
X024341Y002004D01*
X024186Y001849D01*
X024032Y002004D01*
X023976Y002027D01*
X023976Y002829D01*
X023980Y002830D01*
X024047Y002898D01*
X024084Y002986D01*
X024084Y003397D01*
X024047Y003485D01*
X024045Y003487D01*
X024047Y003489D01*
X024084Y003577D01*
X024084Y003987D01*
X024066Y004029D01*
X024106Y004069D01*
X024143Y004157D01*
X024143Y004647D01*
X024106Y004735D01*
X024058Y004783D01*
X024071Y004805D01*
X024083Y004851D01*
X024083Y005053D01*
X023705Y005053D01*
X023705Y005090D01*
X023668Y005090D01*
X023668Y005448D01*
X023446Y005448D01*
X023400Y005436D01*
X023359Y005412D01*
X023326Y005379D01*
X023302Y005338D01*
X023290Y005292D01*
X023290Y005090D01*
X023668Y005090D01*
X023668Y005053D01*
X023290Y005053D01*
X023290Y004851D01*
X023302Y004805D01*
X023315Y004783D01*
X023266Y004735D01*
X023230Y004647D01*
X023230Y004157D01*
X023266Y004069D01*
X023306Y004029D01*
X023289Y003987D01*
X023289Y003577D01*
X023325Y003489D01*
X023327Y003487D01*
X023325Y003485D01*
X023289Y003397D01*
X023289Y002986D01*
X023325Y002898D01*
X023393Y002830D01*
X023396Y002829D01*
X023396Y002027D01*
X023341Y002004D01*
X023186Y001849D01*
X023032Y002004D01*
X022976Y002027D01*
X022976Y002829D01*
X022980Y002830D01*
X023047Y002898D01*
X023084Y002986D01*
X023084Y003397D01*
X023047Y003485D01*
X023045Y003487D01*
X023047Y003489D01*
X023084Y003577D01*
X023084Y003987D01*
X023066Y004029D01*
X023106Y004069D01*
X023143Y004157D01*
X023143Y004647D01*
X023106Y004735D01*
X023058Y004783D01*
X023071Y004805D01*
X023083Y004851D01*
X023083Y005053D01*
X022705Y005053D01*
X022705Y005090D01*
X022668Y005090D01*
X022668Y005448D01*
X022446Y005448D01*
X022400Y005436D01*
X022359Y005412D01*
X022326Y005379D01*
X022302Y005338D01*
X022290Y005292D01*
X022290Y005090D01*
X022668Y005090D01*
X022668Y005053D01*
X022290Y005053D01*
X022290Y004851D01*
X022302Y004805D01*
X022315Y004783D01*
X022266Y004735D01*
X022230Y004647D01*
X022230Y004157D01*
X022266Y004069D01*
X022306Y004029D01*
X022289Y003987D01*
X022289Y003577D01*
X022325Y003489D01*
X022327Y003487D01*
X022325Y003485D01*
X022289Y003397D01*
X022289Y002986D01*
X022325Y002898D01*
X022393Y002830D01*
X022396Y002829D01*
X022396Y002027D01*
X022341Y002004D01*
X022169Y001832D01*
X022076Y001608D01*
X022076Y001365D01*
X022134Y001227D01*
X021239Y001227D01*
X021296Y001365D01*
X021296Y001608D01*
X021203Y001832D01*
X021143Y001893D01*
X021192Y001913D01*
X022250Y001913D01*
X022137Y001755D02*
X021236Y001755D01*
X021192Y001913D02*
X021260Y001981D01*
X021296Y002069D01*
X021296Y002687D01*
X021426Y002817D01*
X021481Y002794D01*
X021892Y002794D01*
X021980Y002830D01*
X022047Y002898D01*
X022084Y002986D01*
X022084Y003397D01*
X022047Y003485D01*
X022045Y003487D01*
X022047Y003489D01*
X022084Y003577D01*
X022084Y003987D01*
X022066Y004029D01*
X022106Y004069D01*
X022143Y004157D01*
X022143Y004647D01*
X022106Y004735D01*
X022058Y004783D01*
X022071Y004805D01*
X022083Y004851D01*
X022083Y005053D01*
X021705Y005053D01*
X021705Y005090D01*
X021668Y005090D01*
X021668Y005448D01*
X021446Y005448D01*
X021400Y005436D01*
X021359Y005412D01*
X021326Y005379D01*
X021302Y005338D01*
X021290Y005292D01*
X021290Y005090D01*
X021668Y005090D01*
X021668Y005053D01*
X021290Y005053D01*
X021290Y004851D01*
X021302Y004805D01*
X021315Y004783D01*
X021266Y004735D01*
X021230Y004647D01*
X021230Y004157D01*
X021266Y004069D01*
X021306Y004029D01*
X021289Y003987D01*
X021289Y003577D01*
X021325Y003489D01*
X021327Y003487D01*
X021325Y003485D01*
X021322Y003477D01*
X021227Y003437D01*
X021084Y003294D01*
X021084Y003397D01*
X021047Y003485D01*
X021045Y003487D01*
X021047Y003489D01*
X021084Y003577D01*
X021084Y003987D01*
X021066Y004029D01*
X021106Y004069D01*
X021143Y004157D01*
X021143Y004647D01*
X021106Y004735D01*
X021058Y004783D01*
X021071Y004805D01*
X021083Y004851D01*
X021083Y005053D01*
X020705Y005053D01*
X020705Y005090D01*
X020668Y005090D01*
X020668Y005448D01*
X020446Y005448D01*
X020400Y005436D01*
X020359Y005412D01*
X020326Y005379D01*
X020302Y005338D01*
X020290Y005292D01*
X020290Y005090D01*
X020668Y005090D01*
X020668Y005053D01*
X020290Y005053D01*
X020290Y004851D01*
X020302Y004805D01*
X020315Y004783D01*
X020266Y004735D01*
X020230Y004647D01*
X020230Y004157D01*
X020266Y004069D01*
X020306Y004029D01*
X020289Y003987D01*
X020289Y003577D01*
X020325Y003489D01*
X020327Y003487D01*
X020325Y003485D01*
X020322Y003477D01*
X020227Y003437D01*
X020084Y003294D01*
X020084Y003397D01*
X020047Y003485D01*
X020045Y003487D01*
X020047Y003489D01*
X020084Y003577D01*
X020084Y003987D01*
X020066Y004029D01*
X020106Y004069D01*
X020143Y004157D01*
X020143Y004647D01*
X020106Y004735D01*
X020058Y004783D01*
X020071Y004805D01*
X020083Y004851D01*
X020083Y005053D01*
X019705Y005053D01*
X019705Y005090D01*
X019668Y005090D01*
X019668Y005448D01*
X019446Y005448D01*
X019400Y005436D01*
X019359Y005412D01*
X019326Y005379D01*
X019302Y005338D01*
X019290Y005292D01*
X019290Y005090D01*
X019668Y005090D01*
X019668Y005053D01*
X019290Y005053D01*
X019290Y004851D01*
X019302Y004805D01*
X019315Y004783D01*
X019266Y004735D01*
X019230Y004647D01*
X019230Y004157D01*
X019266Y004069D01*
X019306Y004029D01*
X019289Y003987D01*
X019289Y003577D01*
X019325Y003489D01*
X019327Y003487D01*
X019325Y003485D01*
X019322Y003477D01*
X019227Y003437D01*
X019084Y003294D01*
X019084Y003397D01*
X019047Y003485D01*
X019045Y003487D01*
X019047Y003489D01*
X019084Y003577D01*
X019084Y003987D01*
X019066Y004029D01*
X019106Y004069D01*
X019143Y004157D01*
X019143Y004647D01*
X019106Y004735D01*
X019058Y004783D01*
X019071Y004805D01*
X019083Y004851D01*
X019083Y005053D01*
X018705Y005053D01*
X018705Y005090D01*
X018668Y005090D01*
X018668Y005448D01*
X018446Y005448D01*
X018400Y005436D01*
X018359Y005412D01*
X018326Y005379D01*
X018302Y005338D01*
X018290Y005292D01*
X018290Y005090D01*
X018668Y005090D01*
X018668Y005053D01*
X018290Y005053D01*
X018290Y004851D01*
X018302Y004805D01*
X018315Y004783D01*
X018266Y004735D01*
X018230Y004647D01*
X018230Y004157D01*
X018266Y004069D01*
X018306Y004029D01*
X018289Y003987D01*
X018289Y003577D01*
X018325Y003489D01*
X018327Y003487D01*
X018325Y003485D01*
X018322Y003477D01*
X018227Y003437D01*
X018084Y003294D01*
X018084Y003397D01*
X018047Y003485D01*
X018045Y003487D01*
X018047Y003489D01*
X018084Y003577D01*
X018084Y003987D01*
X018066Y004029D01*
X018106Y004069D01*
X018143Y004157D01*
X018143Y004647D01*
X018106Y004735D01*
X018058Y004783D01*
X018071Y004805D01*
X018083Y004851D01*
X018083Y005053D01*
X017705Y005053D01*
X017705Y005090D01*
X017668Y005090D01*
X017668Y005448D01*
X017446Y005448D01*
X017400Y005436D01*
X017359Y005412D01*
X017326Y005379D01*
X017302Y005338D01*
X017290Y005292D01*
X017290Y005090D01*
X017668Y005090D01*
X017668Y005053D01*
X017290Y005053D01*
X017290Y004851D01*
X017302Y004805D01*
X017315Y004783D01*
X017266Y004735D01*
X017230Y004647D01*
X017230Y004157D01*
X017266Y004069D01*
X017306Y004029D01*
X017289Y003987D01*
X017289Y003577D01*
X017325Y003489D01*
X017327Y003487D01*
X017325Y003485D01*
X017322Y003477D01*
X017227Y003437D01*
X017084Y003294D01*
X017084Y003397D01*
X017047Y003485D01*
X017045Y003487D01*
X017047Y003489D01*
X017084Y003577D01*
X017084Y003987D01*
X017066Y004029D01*
X017106Y004069D01*
X017143Y004157D01*
X017143Y004647D01*
X017106Y004735D01*
X017058Y004783D01*
X017071Y004805D01*
X017083Y004851D01*
X017083Y005053D01*
X016705Y005053D01*
X016705Y005090D01*
X016668Y005090D01*
X016668Y005448D01*
X016446Y005448D01*
X016400Y005436D01*
X016359Y005412D01*
X016326Y005379D01*
X016302Y005338D01*
X016290Y005292D01*
X016290Y005090D01*
X016668Y005090D01*
X016668Y005053D01*
X016290Y005053D01*
X016290Y004851D01*
X016302Y004805D01*
X016315Y004783D01*
X016266Y004735D01*
X016230Y004647D01*
X016230Y004157D01*
X016266Y004069D01*
X016306Y004029D01*
X016289Y003987D01*
X016289Y003577D01*
X016325Y003489D01*
X016327Y003487D01*
X016325Y003485D01*
X016322Y003477D01*
X016227Y003437D01*
X016084Y003294D01*
X016084Y003397D01*
X016047Y003485D01*
X016045Y003487D01*
X016047Y003489D01*
X016084Y003577D01*
X016084Y003987D01*
X016066Y004029D01*
X016106Y004069D01*
X016143Y004157D01*
X016143Y004647D01*
X016106Y004735D01*
X016058Y004783D01*
X016071Y004805D01*
X016083Y004851D01*
X016083Y005053D01*
X015705Y005053D01*
X015705Y005090D01*
X015668Y005090D01*
X015668Y005448D01*
X015446Y005448D01*
X015400Y005436D01*
X015359Y005412D01*
X015326Y005379D01*
X015302Y005338D01*
X015290Y005292D01*
X015290Y005090D01*
X015668Y005090D01*
X015668Y005053D01*
X015290Y005053D01*
X015290Y004851D01*
X015302Y004805D01*
X015315Y004783D01*
X015266Y004735D01*
X015230Y004647D01*
X015230Y004157D01*
X015266Y004069D01*
X015306Y004029D01*
X015289Y003987D01*
X015289Y003577D01*
X015325Y003489D01*
X015327Y003487D01*
X015325Y003485D01*
X015322Y003477D01*
X015227Y003437D01*
X015084Y003294D01*
X015084Y003397D01*
X015047Y003485D01*
X015045Y003487D01*
X015047Y003489D01*
X015084Y003577D01*
X015084Y003987D01*
X015066Y004029D01*
X015106Y004069D01*
X015143Y004157D01*
X015143Y004647D01*
X015106Y004735D01*
X015058Y004783D01*
X015071Y004805D01*
X015083Y004851D01*
X015083Y005053D01*
X014705Y005053D01*
X014705Y005090D01*
X014668Y005090D01*
X014668Y005448D01*
X014446Y005448D01*
X014400Y005436D01*
X014359Y005412D01*
X014326Y005379D01*
X014302Y005338D01*
X014290Y005292D01*
X014290Y005090D01*
X014668Y005090D01*
X014668Y005053D01*
X014290Y005053D01*
X014290Y004851D01*
X014302Y004805D01*
X014315Y004783D01*
X014266Y004735D01*
X014230Y004647D01*
X014230Y004157D01*
X014266Y004069D01*
X014306Y004029D01*
X014289Y003987D01*
X014289Y003577D01*
X014325Y003489D01*
X014327Y003487D01*
X014325Y003485D01*
X014322Y003477D01*
X014227Y003437D01*
X013863Y003074D01*
X013808Y003097D01*
X013565Y003097D01*
X013341Y003004D01*
X013169Y002832D01*
X013076Y002608D01*
X013076Y002365D01*
X013169Y002141D01*
X013341Y001970D01*
X013565Y001877D01*
X013808Y001877D01*
X014032Y001970D01*
X014186Y002124D01*
X014341Y001970D01*
X014565Y001877D01*
X014808Y001877D01*
X015032Y001970D01*
X015186Y002124D01*
X015324Y001987D01*
X015169Y001832D01*
X015076Y001608D01*
X015076Y001365D01*
X015134Y001227D01*
X011676Y001227D01*
X011676Y005487D01*
X011676Y005400D02*
X014347Y005400D01*
X014290Y005242D02*
X011676Y005242D01*
X011676Y005083D02*
X014668Y005083D01*
X014686Y005071D02*
X014602Y004987D01*
X012686Y004987D01*
X012686Y001987D01*
X013132Y002230D02*
X011676Y002230D01*
X011676Y002072D02*
X013239Y002072D01*
X013477Y001913D02*
X011676Y001913D01*
X011676Y001755D02*
X015137Y001755D01*
X015076Y001596D02*
X011676Y001596D01*
X011676Y001438D02*
X015076Y001438D01*
X015112Y001279D02*
X011676Y001279D01*
X011676Y002389D02*
X013076Y002389D01*
X013076Y002547D02*
X011676Y002547D01*
X011676Y002706D02*
X013117Y002706D01*
X013201Y002864D02*
X011676Y002864D01*
X011676Y003023D02*
X013386Y003023D01*
X013971Y003181D02*
X011676Y003181D01*
X011676Y003340D02*
X014129Y003340D01*
X014321Y003498D02*
X011676Y003498D01*
X011676Y003657D02*
X014289Y003657D01*
X014289Y003815D02*
X011676Y003815D01*
X011676Y003974D02*
X014289Y003974D01*
X014240Y004132D02*
X011676Y004132D01*
X011676Y004291D02*
X014230Y004291D01*
X014230Y004449D02*
X011676Y004449D01*
X011676Y004608D02*
X014230Y004608D01*
X014298Y004766D02*
X011676Y004766D01*
X011676Y004925D02*
X014290Y004925D01*
X014705Y005083D02*
X015668Y005083D01*
X015705Y005083D02*
X016668Y005083D01*
X016705Y005083D02*
X017668Y005083D01*
X017705Y005083D02*
X018668Y005083D01*
X018705Y005083D02*
X019668Y005083D01*
X019705Y005083D02*
X020668Y005083D01*
X020705Y005083D02*
X021668Y005083D01*
X021705Y005083D02*
X022668Y005083D01*
X022705Y005083D02*
X023668Y005083D01*
X023705Y005083D02*
X024668Y005083D01*
X024705Y005083D02*
X025668Y005083D01*
X025705Y005083D02*
X026668Y005083D01*
X026705Y005083D02*
X027668Y005083D01*
X027705Y005083D02*
X028446Y005083D01*
X028446Y004925D02*
X028083Y004925D01*
X028075Y004766D02*
X028446Y004766D01*
X028446Y004608D02*
X028143Y004608D01*
X028143Y004449D02*
X028446Y004449D01*
X028446Y004291D02*
X028143Y004291D01*
X028132Y004132D02*
X028446Y004132D01*
X028446Y003974D02*
X028084Y003974D01*
X028084Y003815D02*
X028446Y003815D01*
X028446Y003657D02*
X028084Y003657D01*
X028051Y003498D02*
X028446Y003498D01*
X028446Y003340D02*
X028084Y003340D01*
X028084Y003181D02*
X028446Y003181D01*
X028446Y003023D02*
X028084Y003023D01*
X028013Y002864D02*
X028446Y002864D01*
X028446Y002706D02*
X027976Y002706D01*
X027976Y002547D02*
X028446Y002547D01*
X028446Y002389D02*
X027976Y002389D01*
X027976Y002230D02*
X028446Y002230D01*
X028446Y002072D02*
X027976Y002072D01*
X028122Y001913D02*
X028446Y001913D01*
X028446Y001755D02*
X028236Y001755D01*
X028296Y001596D02*
X028446Y001596D01*
X028446Y001438D02*
X028296Y001438D01*
X028261Y001279D02*
X028446Y001279D01*
X027396Y002072D02*
X026976Y002072D01*
X026976Y002230D02*
X027396Y002230D01*
X027396Y002389D02*
X026976Y002389D01*
X026976Y002547D02*
X027396Y002547D01*
X027396Y002706D02*
X026976Y002706D01*
X027013Y002864D02*
X027359Y002864D01*
X027289Y003023D02*
X027084Y003023D01*
X027084Y003181D02*
X027289Y003181D01*
X027289Y003340D02*
X027084Y003340D01*
X027051Y003498D02*
X027321Y003498D01*
X027289Y003657D02*
X027084Y003657D01*
X027084Y003815D02*
X027289Y003815D01*
X027289Y003974D02*
X027084Y003974D01*
X027132Y004132D02*
X027240Y004132D01*
X027230Y004291D02*
X027143Y004291D01*
X027143Y004449D02*
X027230Y004449D01*
X027230Y004608D02*
X027143Y004608D01*
X027075Y004766D02*
X027298Y004766D01*
X027290Y004925D02*
X027083Y004925D01*
X027083Y005090D02*
X026705Y005090D01*
X026705Y005448D01*
X026927Y005448D01*
X026972Y005436D01*
X027013Y005412D01*
X027047Y005379D01*
X027071Y005338D01*
X027083Y005292D01*
X027083Y005090D01*
X027083Y005242D02*
X027290Y005242D01*
X027347Y005400D02*
X027025Y005400D01*
X026705Y005400D02*
X026668Y005400D01*
X026668Y005242D02*
X026705Y005242D01*
X026347Y005400D02*
X026025Y005400D01*
X026013Y005412D02*
X025972Y005436D01*
X025927Y005448D01*
X025705Y005448D01*
X025705Y005090D01*
X026083Y005090D01*
X026083Y005292D01*
X026071Y005338D01*
X026047Y005379D01*
X026013Y005412D01*
X026083Y005242D02*
X026290Y005242D01*
X026290Y004925D02*
X026083Y004925D01*
X026075Y004766D02*
X026298Y004766D01*
X026230Y004608D02*
X026143Y004608D01*
X026143Y004449D02*
X026230Y004449D01*
X026230Y004291D02*
X026143Y004291D01*
X026132Y004132D02*
X026240Y004132D01*
X026289Y003974D02*
X026084Y003974D01*
X026084Y003815D02*
X026289Y003815D01*
X026289Y003657D02*
X026084Y003657D01*
X026051Y003498D02*
X026321Y003498D01*
X026289Y003340D02*
X026084Y003340D01*
X026084Y003181D02*
X026289Y003181D01*
X026289Y003023D02*
X026084Y003023D01*
X026013Y002864D02*
X026359Y002864D01*
X026396Y002706D02*
X025976Y002706D01*
X025976Y002547D02*
X026396Y002547D01*
X026396Y002389D02*
X025976Y002389D01*
X025976Y002230D02*
X026396Y002230D01*
X026396Y002072D02*
X025976Y002072D01*
X026122Y001913D02*
X026250Y001913D01*
X025396Y002072D02*
X024976Y002072D01*
X024976Y002230D02*
X025396Y002230D01*
X025396Y002389D02*
X024976Y002389D01*
X024976Y002547D02*
X025396Y002547D01*
X025396Y002706D02*
X024976Y002706D01*
X025013Y002864D02*
X025359Y002864D01*
X025289Y003023D02*
X025084Y003023D01*
X025084Y003181D02*
X025289Y003181D01*
X025289Y003340D02*
X025084Y003340D01*
X025051Y003498D02*
X025321Y003498D01*
X025289Y003657D02*
X025084Y003657D01*
X025084Y003815D02*
X025289Y003815D01*
X025289Y003974D02*
X025084Y003974D01*
X025132Y004132D02*
X025240Y004132D01*
X025230Y004291D02*
X025143Y004291D01*
X025143Y004449D02*
X025230Y004449D01*
X025230Y004608D02*
X025143Y004608D01*
X025075Y004766D02*
X025298Y004766D01*
X025290Y004925D02*
X025083Y004925D01*
X025083Y005090D02*
X024705Y005090D01*
X024705Y005448D01*
X024927Y005448D01*
X024972Y005436D01*
X025013Y005412D01*
X025047Y005379D01*
X025071Y005338D01*
X025083Y005292D01*
X025083Y005090D01*
X025083Y005242D02*
X025290Y005242D01*
X025347Y005400D02*
X025025Y005400D01*
X024705Y005400D02*
X024668Y005400D01*
X024668Y005242D02*
X024705Y005242D01*
X024347Y005400D02*
X024025Y005400D01*
X024013Y005412D02*
X023972Y005436D01*
X023927Y005448D01*
X023705Y005448D01*
X023705Y005090D01*
X024083Y005090D01*
X024083Y005292D01*
X024071Y005338D01*
X024047Y005379D01*
X024013Y005412D01*
X024083Y005242D02*
X024290Y005242D01*
X024290Y004925D02*
X024083Y004925D01*
X024075Y004766D02*
X024298Y004766D01*
X024230Y004608D02*
X024143Y004608D01*
X024143Y004449D02*
X024230Y004449D01*
X024230Y004291D02*
X024143Y004291D01*
X024132Y004132D02*
X024240Y004132D01*
X024289Y003974D02*
X024084Y003974D01*
X024084Y003815D02*
X024289Y003815D01*
X024289Y003657D02*
X024084Y003657D01*
X024051Y003498D02*
X024321Y003498D01*
X024289Y003340D02*
X024084Y003340D01*
X024084Y003181D02*
X024289Y003181D01*
X024289Y003023D02*
X024084Y003023D01*
X024013Y002864D02*
X024359Y002864D01*
X024396Y002706D02*
X023976Y002706D01*
X023976Y002547D02*
X024396Y002547D01*
X024396Y002389D02*
X023976Y002389D01*
X023976Y002230D02*
X024396Y002230D01*
X024396Y002072D02*
X023976Y002072D01*
X024122Y001913D02*
X024250Y001913D01*
X023396Y002072D02*
X022976Y002072D01*
X022976Y002230D02*
X023396Y002230D01*
X023396Y002389D02*
X022976Y002389D01*
X022976Y002547D02*
X023396Y002547D01*
X023396Y002706D02*
X022976Y002706D01*
X023013Y002864D02*
X023359Y002864D01*
X023289Y003023D02*
X023084Y003023D01*
X023084Y003181D02*
X023289Y003181D01*
X023289Y003340D02*
X023084Y003340D01*
X023051Y003498D02*
X023321Y003498D01*
X023289Y003657D02*
X023084Y003657D01*
X023084Y003815D02*
X023289Y003815D01*
X023289Y003974D02*
X023084Y003974D01*
X023132Y004132D02*
X023240Y004132D01*
X023230Y004291D02*
X023143Y004291D01*
X023143Y004449D02*
X023230Y004449D01*
X023230Y004608D02*
X023143Y004608D01*
X023075Y004766D02*
X023298Y004766D01*
X023290Y004925D02*
X023083Y004925D01*
X023083Y005090D02*
X022705Y005090D01*
X022705Y005448D01*
X022927Y005448D01*
X022972Y005436D01*
X023013Y005412D01*
X023047Y005379D01*
X023071Y005338D01*
X023083Y005292D01*
X023083Y005090D01*
X023083Y005242D02*
X023290Y005242D01*
X023347Y005400D02*
X023025Y005400D01*
X022705Y005400D02*
X022668Y005400D01*
X022668Y005242D02*
X022705Y005242D01*
X022347Y005400D02*
X022025Y005400D01*
X022013Y005412D02*
X021972Y005436D01*
X021927Y005448D01*
X021705Y005448D01*
X021705Y005090D01*
X022083Y005090D01*
X022083Y005292D01*
X022071Y005338D01*
X022047Y005379D01*
X022013Y005412D01*
X022083Y005242D02*
X022290Y005242D01*
X022290Y004925D02*
X022083Y004925D01*
X022075Y004766D02*
X022298Y004766D01*
X022230Y004608D02*
X022143Y004608D01*
X022143Y004449D02*
X022230Y004449D01*
X022230Y004291D02*
X022143Y004291D01*
X022132Y004132D02*
X022240Y004132D01*
X022289Y003974D02*
X022084Y003974D01*
X022084Y003815D02*
X022289Y003815D01*
X022289Y003657D02*
X022084Y003657D01*
X022051Y003498D02*
X022321Y003498D01*
X022289Y003340D02*
X022084Y003340D01*
X022084Y003181D02*
X022289Y003181D01*
X022289Y003023D02*
X022084Y003023D01*
X022013Y002864D02*
X022359Y002864D01*
X022396Y002706D02*
X021315Y002706D01*
X021296Y002547D02*
X022396Y002547D01*
X022396Y002389D02*
X021296Y002389D01*
X021296Y002230D02*
X022396Y002230D01*
X022396Y002072D02*
X021296Y002072D01*
X021296Y001596D02*
X022076Y001596D01*
X022076Y001438D02*
X021296Y001438D01*
X021261Y001279D02*
X022112Y001279D01*
X023122Y001913D02*
X023250Y001913D01*
X025122Y001913D02*
X025250Y001913D01*
X027122Y001913D02*
X027250Y001913D01*
X027705Y005090D02*
X028083Y005090D01*
X028083Y005292D01*
X028071Y005338D01*
X028047Y005379D01*
X028013Y005412D01*
X027972Y005436D01*
X027927Y005448D01*
X027705Y005448D01*
X027705Y005090D01*
X027705Y005242D02*
X027668Y005242D01*
X027668Y005400D02*
X027705Y005400D01*
X028025Y005400D02*
X028446Y005400D01*
X028446Y005242D02*
X028083Y005242D01*
X025705Y005242D02*
X025668Y005242D01*
X025668Y005400D02*
X025705Y005400D01*
X023705Y005400D02*
X023668Y005400D01*
X023668Y005242D02*
X023705Y005242D01*
X021705Y005242D02*
X021668Y005242D01*
X021668Y005400D02*
X021705Y005400D01*
X021347Y005400D02*
X021025Y005400D01*
X021013Y005412D02*
X020972Y005436D01*
X020927Y005448D01*
X020705Y005448D01*
X020705Y005090D01*
X021083Y005090D01*
X021083Y005292D01*
X021071Y005338D01*
X021047Y005379D01*
X021013Y005412D01*
X021083Y005242D02*
X021290Y005242D01*
X021290Y004925D02*
X021083Y004925D01*
X021075Y004766D02*
X021298Y004766D01*
X021230Y004608D02*
X021143Y004608D01*
X021143Y004449D02*
X021230Y004449D01*
X021230Y004291D02*
X021143Y004291D01*
X021132Y004132D02*
X021240Y004132D01*
X021289Y003974D02*
X021084Y003974D01*
X021084Y003815D02*
X021289Y003815D01*
X021289Y003657D02*
X021084Y003657D01*
X021051Y003498D02*
X021321Y003498D01*
X021129Y003340D02*
X021084Y003340D01*
X020321Y003498D02*
X020051Y003498D01*
X020084Y003340D02*
X020129Y003340D01*
X020084Y003657D02*
X020289Y003657D01*
X020289Y003815D02*
X020084Y003815D01*
X020084Y003974D02*
X020289Y003974D01*
X020240Y004132D02*
X020132Y004132D01*
X020143Y004291D02*
X020230Y004291D01*
X020230Y004449D02*
X020143Y004449D01*
X020143Y004608D02*
X020230Y004608D01*
X020298Y004766D02*
X020075Y004766D01*
X020083Y004925D02*
X020290Y004925D01*
X020083Y005090D02*
X020083Y005292D01*
X020071Y005338D01*
X020047Y005379D01*
X020013Y005412D01*
X019972Y005436D01*
X019927Y005448D01*
X019705Y005448D01*
X019705Y005090D01*
X020083Y005090D01*
X020083Y005242D02*
X020290Y005242D01*
X020347Y005400D02*
X020025Y005400D01*
X019705Y005400D02*
X019668Y005400D01*
X019668Y005242D02*
X019705Y005242D01*
X019347Y005400D02*
X019025Y005400D01*
X019013Y005412D02*
X018972Y005436D01*
X018927Y005448D01*
X018705Y005448D01*
X018705Y005090D01*
X019083Y005090D01*
X019083Y005292D01*
X019071Y005338D01*
X019047Y005379D01*
X019013Y005412D01*
X019083Y005242D02*
X019290Y005242D01*
X019290Y004925D02*
X019083Y004925D01*
X019075Y004766D02*
X019298Y004766D01*
X019230Y004608D02*
X019143Y004608D01*
X019143Y004449D02*
X019230Y004449D01*
X019230Y004291D02*
X019143Y004291D01*
X019132Y004132D02*
X019240Y004132D01*
X019289Y003974D02*
X019084Y003974D01*
X019084Y003815D02*
X019289Y003815D01*
X019289Y003657D02*
X019084Y003657D01*
X019051Y003498D02*
X019321Y003498D01*
X019129Y003340D02*
X019084Y003340D01*
X018321Y003498D02*
X018051Y003498D01*
X018084Y003340D02*
X018129Y003340D01*
X018084Y003657D02*
X018289Y003657D01*
X018289Y003815D02*
X018084Y003815D01*
X018084Y003974D02*
X018289Y003974D01*
X018240Y004132D02*
X018132Y004132D01*
X018143Y004291D02*
X018230Y004291D01*
X018230Y004449D02*
X018143Y004449D01*
X018143Y004608D02*
X018230Y004608D01*
X018298Y004766D02*
X018075Y004766D01*
X018083Y004925D02*
X018290Y004925D01*
X018083Y005090D02*
X018083Y005292D01*
X018071Y005338D01*
X018047Y005379D01*
X018013Y005412D01*
X017972Y005436D01*
X017927Y005448D01*
X017705Y005448D01*
X017705Y005090D01*
X018083Y005090D01*
X018083Y005242D02*
X018290Y005242D01*
X018347Y005400D02*
X018025Y005400D01*
X017705Y005400D02*
X017668Y005400D01*
X017668Y005242D02*
X017705Y005242D01*
X017347Y005400D02*
X017025Y005400D01*
X017013Y005412D02*
X016972Y005436D01*
X016927Y005448D01*
X016705Y005448D01*
X016705Y005090D01*
X017083Y005090D01*
X017083Y005292D01*
X017071Y005338D01*
X017047Y005379D01*
X017013Y005412D01*
X017083Y005242D02*
X017290Y005242D01*
X017290Y004925D02*
X017083Y004925D01*
X017075Y004766D02*
X017298Y004766D01*
X017230Y004608D02*
X017143Y004608D01*
X017143Y004449D02*
X017230Y004449D01*
X017230Y004291D02*
X017143Y004291D01*
X017132Y004132D02*
X017240Y004132D01*
X017289Y003974D02*
X017084Y003974D01*
X017084Y003815D02*
X017289Y003815D01*
X017289Y003657D02*
X017084Y003657D01*
X017051Y003498D02*
X017321Y003498D01*
X017129Y003340D02*
X017084Y003340D01*
X016321Y003498D02*
X016051Y003498D01*
X016084Y003340D02*
X016129Y003340D01*
X016084Y003657D02*
X016289Y003657D01*
X016289Y003815D02*
X016084Y003815D01*
X016084Y003974D02*
X016289Y003974D01*
X016240Y004132D02*
X016132Y004132D01*
X016143Y004291D02*
X016230Y004291D01*
X016230Y004449D02*
X016143Y004449D01*
X016143Y004608D02*
X016230Y004608D01*
X016298Y004766D02*
X016075Y004766D01*
X016083Y004925D02*
X016290Y004925D01*
X016083Y005090D02*
X016083Y005292D01*
X016071Y005338D01*
X016047Y005379D01*
X016013Y005412D01*
X015972Y005436D01*
X015927Y005448D01*
X015705Y005448D01*
X015705Y005090D01*
X016083Y005090D01*
X016083Y005242D02*
X016290Y005242D01*
X016347Y005400D02*
X016025Y005400D01*
X015705Y005400D02*
X015668Y005400D01*
X015668Y005242D02*
X015705Y005242D01*
X015347Y005400D02*
X015025Y005400D01*
X015013Y005412D02*
X014972Y005436D01*
X014927Y005448D01*
X014705Y005448D01*
X014705Y005090D01*
X015083Y005090D01*
X015083Y005292D01*
X015071Y005338D01*
X015047Y005379D01*
X015013Y005412D01*
X015083Y005242D02*
X015290Y005242D01*
X015290Y004925D02*
X015083Y004925D01*
X015075Y004766D02*
X015298Y004766D01*
X015230Y004608D02*
X015143Y004608D01*
X015143Y004449D02*
X015230Y004449D01*
X015230Y004291D02*
X015143Y004291D01*
X015132Y004132D02*
X015240Y004132D01*
X015289Y003974D02*
X015084Y003974D01*
X015084Y003815D02*
X015289Y003815D01*
X015289Y003657D02*
X015084Y003657D01*
X015051Y003498D02*
X015321Y003498D01*
X015129Y003340D02*
X015084Y003340D01*
X015134Y002072D02*
X015239Y002072D01*
X015250Y001913D02*
X014896Y001913D01*
X014477Y001913D02*
X013896Y001913D01*
X014134Y002072D02*
X014239Y002072D01*
X014668Y005242D02*
X014705Y005242D01*
X014705Y005400D02*
X014668Y005400D01*
X016668Y005400D02*
X016705Y005400D01*
X016705Y005242D02*
X016668Y005242D01*
X018668Y005242D02*
X018705Y005242D01*
X018705Y005400D02*
X018668Y005400D01*
X020668Y005400D02*
X020705Y005400D01*
X020705Y005242D02*
X020668Y005242D01*
X018186Y002124D02*
X018341Y001970D01*
X018388Y001950D01*
X018328Y001906D01*
X018267Y001845D01*
X018223Y001785D01*
X018203Y001832D01*
X018049Y001987D01*
X018186Y002124D01*
X018134Y002072D02*
X018239Y002072D01*
X018338Y001913D02*
X018122Y001913D01*
X018706Y001507D02*
X018706Y001467D01*
X019666Y001467D01*
X019666Y001507D01*
X019236Y001507D01*
X018706Y001507D01*
M02*
