G75*
G70*
%OFA0B0*%
%FSLAX24Y24*%
%IPPOS*%
%LPD*%
%AMOC8*
5,1,8,0,0,1.08239X$1,22.5*
%
%ADD10C,0.0000*%
%ADD11R,0.0780X0.0780*%
%ADD12C,0.0780*%
%ADD13R,0.0473X0.0434*%
%ADD14R,0.0355X0.0355*%
D10*
X011436Y000987D02*
X011436Y020987D01*
X028686Y020987D01*
X028686Y000987D01*
X011436Y000987D01*
D11*
X020686Y002487D03*
X019086Y020487D03*
X027686Y020487D03*
D12*
X026686Y020487D03*
X025686Y020487D03*
X024686Y020487D03*
X023686Y020487D03*
X022686Y020487D03*
X021686Y020487D03*
X020686Y020487D03*
X018086Y020487D03*
X017086Y020487D03*
X016086Y020487D03*
X015086Y020487D03*
X014086Y020487D03*
X013086Y020487D03*
X012086Y020487D03*
X013686Y002487D03*
X014686Y002487D03*
X015686Y002487D03*
X016686Y002487D03*
X017686Y002487D03*
X018686Y002487D03*
X019686Y002487D03*
X019686Y001487D03*
X018686Y001487D03*
X017686Y001487D03*
X016686Y001487D03*
X015686Y001487D03*
X020686Y001487D03*
X022686Y001487D03*
X023686Y001487D03*
X024686Y001487D03*
X025686Y001487D03*
X026686Y001487D03*
X027686Y001487D03*
D13*
X027686Y004402D03*
X027686Y005071D03*
X026686Y005071D03*
X026686Y004402D03*
X025686Y004402D03*
X025686Y005071D03*
X024686Y005071D03*
X024686Y004402D03*
X023686Y004402D03*
X023686Y005071D03*
X022686Y005071D03*
X022686Y004402D03*
X021686Y004402D03*
X021686Y005071D03*
X020686Y005071D03*
X020686Y004402D03*
X019686Y004402D03*
X019686Y005071D03*
X018686Y005071D03*
X018686Y004402D03*
X017686Y004402D03*
X017686Y005071D03*
X016686Y005071D03*
X016686Y004402D03*
X015686Y004402D03*
X015686Y005071D03*
X014686Y005071D03*
X014686Y004402D03*
X015086Y017952D03*
X015086Y018621D03*
X016086Y018621D03*
X016086Y017952D03*
X017086Y017952D03*
X017086Y018621D03*
X018086Y018621D03*
X018086Y017952D03*
X019086Y017952D03*
X019086Y018621D03*
X020686Y018621D03*
X020686Y017952D03*
X021686Y017952D03*
X021686Y018621D03*
X022686Y018621D03*
X022686Y017952D03*
X023686Y017952D03*
X023686Y018621D03*
X024686Y018621D03*
X024686Y017952D03*
X025686Y017952D03*
X025686Y018621D03*
X026686Y018621D03*
X026686Y017952D03*
X027686Y017952D03*
X027686Y018621D03*
X014086Y018621D03*
X014086Y017952D03*
D14*
X014086Y019191D03*
X014086Y019782D03*
X015086Y019782D03*
X015086Y019191D03*
X016086Y019191D03*
X016086Y019782D03*
X017086Y019782D03*
X017086Y019191D03*
X018086Y019191D03*
X018086Y019782D03*
X019086Y019782D03*
X019086Y019191D03*
X020686Y019191D03*
X020686Y019782D03*
X021686Y019782D03*
X021686Y019191D03*
X022686Y019191D03*
X022686Y019782D03*
X023686Y019782D03*
X023686Y019191D03*
X024686Y019191D03*
X024686Y019782D03*
X025686Y019782D03*
X025686Y019191D03*
X026686Y019191D03*
X026686Y019782D03*
X027686Y019782D03*
X027686Y019191D03*
X027686Y003782D03*
X027686Y003191D03*
X026686Y003191D03*
X026686Y003782D03*
X025686Y003782D03*
X025686Y003191D03*
X024686Y003191D03*
X024686Y003782D03*
X023686Y003782D03*
X023686Y003191D03*
X022686Y003191D03*
X022686Y003782D03*
X021686Y003782D03*
X021686Y003191D03*
X020686Y003191D03*
X020686Y003782D03*
X019686Y003782D03*
X019686Y003191D03*
X018686Y003191D03*
X018686Y003782D03*
X017686Y003782D03*
X017686Y003191D03*
X016686Y003191D03*
X016686Y003782D03*
X015686Y003782D03*
X015686Y003191D03*
X014686Y003191D03*
X014686Y003782D03*
M02*
