G75*
G70*
%OFA0B0*%
%FSLAX24Y24*%
%IPPOS*%
%LPD*%
%AMOC8*
5,1,8,0,0,1.08239X$1,22.5*
%
%ADD10C,0.0000*%
%ADD11C,0.0110*%
%ADD12C,0.0120*%
D10*
X011436Y000987D02*
X011436Y020987D01*
X028686Y020987D01*
X028686Y000987D01*
X011436Y000987D01*
D11*
X015695Y011042D02*
X015620Y011117D01*
X015620Y011417D01*
X015920Y011117D01*
X015845Y011042D01*
X015695Y011042D01*
X015920Y011117D02*
X015920Y011417D01*
X015845Y011492D01*
X015695Y011492D01*
X015620Y011417D01*
X016136Y011417D02*
X016136Y011117D01*
X016211Y011042D01*
X016361Y011042D01*
X016436Y011117D01*
X016136Y011417D01*
X016211Y011492D01*
X016361Y011492D01*
X016436Y011417D01*
X016436Y011117D01*
X016651Y011117D02*
X016726Y011042D01*
X016876Y011042D01*
X016951Y011117D01*
X016651Y011417D01*
X016651Y011117D01*
X016951Y011117D02*
X016951Y011417D01*
X016876Y011492D01*
X016726Y011492D01*
X016651Y011417D01*
X017167Y011417D02*
X017167Y011117D01*
X017242Y011042D01*
X017392Y011042D01*
X017467Y011117D01*
X017167Y011417D01*
X017242Y011492D01*
X017392Y011492D01*
X017467Y011417D01*
X017467Y011117D01*
X017682Y011117D02*
X017758Y011042D01*
X017908Y011042D01*
X017983Y011117D01*
X017682Y011417D01*
X017682Y011117D01*
X017983Y011117D02*
X017983Y011417D01*
X017908Y011492D01*
X017758Y011492D01*
X017682Y011417D01*
X018165Y011342D02*
X018165Y011267D01*
X018241Y011267D01*
X018241Y011342D01*
X018165Y011342D01*
X018165Y011117D02*
X018165Y011042D01*
X018241Y011042D01*
X018241Y011117D01*
X018165Y011117D01*
X018456Y011192D02*
X018756Y011192D01*
X018756Y011342D02*
X018531Y011342D01*
X018456Y011342D01*
X018531Y011492D02*
X018531Y011042D01*
X018681Y011042D02*
X018681Y011492D01*
X018972Y011417D02*
X019047Y011492D01*
X019197Y011492D01*
X019272Y011417D01*
X019272Y011117D01*
X019197Y011042D01*
X019047Y011042D01*
X018972Y011117D01*
X018972Y011417D01*
X019487Y011417D02*
X019487Y011267D01*
X019562Y011192D01*
X019787Y011192D01*
X019787Y011042D02*
X019787Y011492D01*
X019562Y011492D01*
X019487Y011417D01*
X020518Y011417D02*
X020518Y011342D01*
X020594Y011267D01*
X020744Y011267D01*
X020819Y011342D01*
X020819Y011417D01*
X020744Y011492D01*
X020594Y011492D01*
X020518Y011417D01*
X020594Y011267D02*
X020518Y011192D01*
X020518Y011117D01*
X020594Y011042D01*
X020744Y011042D01*
X020819Y011117D01*
X020819Y011192D01*
X020744Y011267D01*
X021034Y011342D02*
X021034Y011417D01*
X021109Y011492D01*
X021259Y011492D01*
X021334Y011417D01*
X021550Y011417D02*
X021625Y011492D01*
X021850Y011492D01*
X021850Y011042D01*
X021625Y011042D01*
X021550Y011117D01*
X021550Y011417D01*
X021334Y011042D02*
X021034Y011042D01*
X021334Y011042D02*
X021034Y011342D01*
X022065Y011492D02*
X022366Y011492D01*
X022366Y011042D01*
X022065Y011042D01*
X022216Y011267D02*
X022366Y011267D01*
X022581Y011042D02*
X022881Y011042D01*
X022881Y011492D01*
D12*
X028186Y016987D02*
X011686Y016987D01*
X011686Y005987D02*
X028186Y005987D01*
M02*
