%
M48
M72
T01C0.0315
%
T01
X13686Y2487
X14686Y2487
X15686Y2487
X16686Y2487
X17686Y2487
X18686Y2487
X19686Y2487
X20686Y2487
X20686Y1487
X19686Y1487
X18686Y1487
X17686Y1487
X16686Y1487
X15686Y1487
X22686Y1487
X23686Y1487
X24686Y1487
X25686Y1487
X26686Y1487
X27686Y1487
X27686Y20487
X26686Y20487
X25686Y20487
X24686Y20487
X23686Y20487
X22686Y20487
X21686Y20487
X20686Y20487
X19086Y20487
X18086Y20487
X17086Y20487
X16086Y20487
X15086Y20487
X14086Y20487
X13086Y20487
X12086Y20487
M30
