G75*
G70*
%OFA0B0*%
%FSLAX24Y24*%
%IPPOS*%
%LPD*%
%AMOC8*
5,1,8,0,0,1.08239X$1,22.5*
%
%ADD10C,0.0000*%
%ADD11R,0.0740X0.0740*%
%ADD12C,0.0740*%
%ADD13OC8,0.0669*%
D10*
X011436Y000987D02*
X011436Y020987D01*
X028686Y020987D01*
X028686Y000987D01*
X011436Y000987D01*
D11*
X020686Y002487D03*
X019086Y020487D03*
X027686Y020487D03*
D12*
X026686Y020487D03*
X025686Y020487D03*
X024686Y020487D03*
X023686Y020487D03*
X022686Y020487D03*
X021686Y020487D03*
X020686Y020487D03*
X018086Y020487D03*
X017086Y020487D03*
X016086Y020487D03*
X015086Y020487D03*
X014086Y020487D03*
X013086Y020487D03*
X012086Y020487D03*
X013686Y002487D03*
X014686Y002487D03*
X015686Y002487D03*
X016686Y002487D03*
X017686Y002487D03*
X018686Y002487D03*
X019686Y002487D03*
X019686Y001487D03*
X018686Y001487D03*
X017686Y001487D03*
X016686Y001487D03*
X015686Y001487D03*
X020686Y001487D03*
X022686Y001487D03*
X023686Y001487D03*
X024686Y001487D03*
X025686Y001487D03*
X026686Y001487D03*
X027686Y001487D03*
D13*
X027686Y006487D03*
X026686Y006487D03*
X026686Y007487D03*
X027686Y007487D03*
X027686Y008487D03*
X026686Y008487D03*
X026686Y009487D03*
X027686Y009487D03*
X026686Y010487D03*
X026686Y011487D03*
X026686Y012487D03*
X026686Y013487D03*
X027686Y013487D03*
X027686Y014487D03*
X026686Y014487D03*
X026686Y015487D03*
X027686Y015487D03*
X027686Y016487D03*
X026686Y016487D03*
X025686Y016487D03*
X024686Y016487D03*
X023686Y016487D03*
X022686Y016487D03*
X021686Y016487D03*
X020686Y016487D03*
X019686Y016487D03*
X018686Y016487D03*
X017686Y016487D03*
X016686Y016487D03*
X015686Y016487D03*
X014686Y016487D03*
X013686Y016487D03*
X012686Y016487D03*
X012686Y015487D03*
X013686Y015487D03*
X014686Y015487D03*
X015686Y015487D03*
X016686Y015487D03*
X017686Y015487D03*
X018686Y015487D03*
X019686Y015487D03*
X020686Y015487D03*
X021686Y015487D03*
X022686Y015487D03*
X023686Y015487D03*
X024686Y015487D03*
X025686Y015487D03*
X025686Y014487D03*
X024686Y014487D03*
X023686Y014487D03*
X022686Y014487D03*
X021686Y014487D03*
X020686Y014487D03*
X019686Y014487D03*
X018686Y014487D03*
X017686Y014487D03*
X016686Y014487D03*
X015686Y014487D03*
X014686Y014487D03*
X013686Y014487D03*
X012686Y014487D03*
X012686Y013487D03*
X013686Y013487D03*
X014686Y013487D03*
X015686Y013487D03*
X016686Y013487D03*
X017686Y013487D03*
X018686Y013487D03*
X019686Y013487D03*
X020686Y013487D03*
X021686Y013487D03*
X022686Y013487D03*
X023686Y013487D03*
X024686Y013487D03*
X025686Y013487D03*
X025686Y012487D03*
X024686Y012487D03*
X023686Y012487D03*
X022686Y012487D03*
X021686Y012487D03*
X020686Y012487D03*
X019686Y012487D03*
X018686Y012487D03*
X017686Y012487D03*
X016686Y012487D03*
X015686Y012487D03*
X014686Y012487D03*
X013686Y012487D03*
X012686Y012487D03*
X012686Y011487D03*
X013686Y011487D03*
X014686Y011487D03*
X014686Y010487D03*
X013686Y010487D03*
X012686Y010487D03*
X012686Y009487D03*
X013686Y009487D03*
X014686Y009487D03*
X015686Y009487D03*
X016686Y009487D03*
X017686Y009487D03*
X018686Y009487D03*
X019686Y009487D03*
X020686Y009487D03*
X021686Y009487D03*
X022686Y009487D03*
X023686Y009487D03*
X023686Y010487D03*
X023686Y011487D03*
X024686Y011487D03*
X025686Y011487D03*
X025686Y010487D03*
X024686Y010487D03*
X024686Y009487D03*
X025686Y009487D03*
X025686Y008487D03*
X024686Y008487D03*
X023686Y008487D03*
X022686Y008487D03*
X021686Y008487D03*
X020686Y008487D03*
X019686Y008487D03*
X018686Y008487D03*
X017686Y008487D03*
X016686Y008487D03*
X015686Y008487D03*
X014686Y008487D03*
X013686Y008487D03*
X012686Y008487D03*
X012686Y007487D03*
X013686Y007487D03*
X014686Y007487D03*
X015686Y007487D03*
X016686Y007487D03*
X017686Y007487D03*
X018686Y007487D03*
X019686Y007487D03*
X020686Y007487D03*
X021686Y007487D03*
X022686Y007487D03*
X023686Y007487D03*
X024686Y007487D03*
X025686Y007487D03*
X025686Y006487D03*
X024686Y006487D03*
X023686Y006487D03*
X022686Y006487D03*
X021686Y006487D03*
X020686Y006487D03*
X019686Y006487D03*
X018686Y006487D03*
X017686Y006487D03*
X016686Y006487D03*
X015686Y006487D03*
X014686Y006487D03*
X013686Y006487D03*
X012686Y006487D03*
M02*
