%
M48
M72
T01C0.0315
T02C0.0374
%
T01
X13686Y2487
X14686Y2487
X15686Y2487
X16686Y2487
X17686Y2487
X18686Y2487
X19686Y2487
X20686Y2487
X20686Y1487
X19686Y1487
X18686Y1487
X17686Y1487
X16686Y1487
X15686Y1487
X22686Y1487
X23686Y1487
X24686Y1487
X25686Y1487
X26686Y1487
X27686Y1487
X27686Y20487
X26686Y20487
X25686Y20487
X24686Y20487
X23686Y20487
X22686Y20487
X21686Y20487
X20686Y20487
X19086Y20487
X18086Y20487
X17086Y20487
X16086Y20487
X15086Y20487
X14086Y20487
X13086Y20487
X12086Y20487
T02
X12686Y6487
X12686Y7487
X12686Y8487
X12686Y9487
X12686Y10487
X12686Y11487
X12686Y12487
X12686Y13487
X12686Y14487
X12686Y15487
X12686Y16487
X13686Y16487
X14686Y16487
X15686Y16487
X16686Y16487
X17686Y16487
X18686Y16487
X19686Y16487
X20686Y16487
X21686Y16487
X22686Y16487
X23686Y16487
X24686Y16487
X25686Y16487
X26686Y16487
X27686Y16487
X27686Y15487
X26686Y15487
X25686Y15487
X24686Y15487
X23686Y15487
X22686Y15487
X21686Y15487
X20686Y15487
X19686Y15487
X18686Y15487
X17686Y15487
X16686Y15487
X15686Y15487
X14686Y15487
X13686Y15487
X13686Y14487
X14686Y14487
X15686Y14487
X16686Y14487
X17686Y14487
X18686Y14487
X19686Y14487
X20686Y14487
X21686Y14487
X22686Y14487
X23686Y14487
X24686Y14487
X25686Y14487
X26686Y14487
X27686Y14487
X27686Y13487
X26686Y13487
X25686Y13487
X24686Y13487
X23686Y13487
X22686Y13487
X21686Y13487
X20686Y13487
X19686Y13487
X18686Y13487
X17686Y13487
X16686Y13487
X15686Y13487
X14686Y13487
X13686Y13487
X13686Y12487
X14686Y12487
X15686Y12487
X16686Y12487
X17686Y12487
X18686Y12487
X19686Y12487
X20686Y12487
X21686Y12487
X22686Y12487
X23686Y12487
X24686Y12487
X25686Y12487
X26686Y12487
X26686Y11487
X25686Y11487
X24686Y11487
X23686Y11487
X23686Y10487
X24686Y10487
X25686Y10487
X26686Y10487
X26686Y9487
X27686Y9487
X27686Y8487
X26686Y8487
X25686Y8487
X24686Y8487
X23686Y8487
X23686Y9487
X24686Y9487
X25686Y9487
X25686Y7487
X24686Y7487
X23686Y7487
X22686Y7487
X21686Y7487
X21686Y8487
X22686Y8487
X22686Y9487
X21686Y9487
X20686Y9487
X19686Y9487
X18686Y9487
X17686Y9487
X16686Y9487
X15686Y9487
X14686Y9487
X13686Y9487
X13686Y10487
X14686Y10487
X14686Y11487
X13686Y11487
X13686Y8487
X14686Y8487
X15686Y8487
X16686Y8487
X17686Y8487
X18686Y8487
X19686Y8487
X20686Y8487
X20686Y7487
X19686Y7487
X18686Y7487
X17686Y7487
X16686Y7487
X15686Y7487
X14686Y7487
X13686Y7487
X13686Y6487
X14686Y6487
X15686Y6487
X16686Y6487
X17686Y6487
X18686Y6487
X19686Y6487
X20686Y6487
X21686Y6487
X22686Y6487
X23686Y6487
X24686Y6487
X25686Y6487
X26686Y6487
X27686Y6487
X27686Y7487
X26686Y7487
M30
